<?xml version="1.0" standalone="no"?>
<!DOCTYPE svg PUBLIC "-//W3C//DTD SVG 20010904//EN"
 "http://www.w3.org/TR/2001/REC-SVG-20010904/DTD/svg10.dtd">
<svg version="1.0" xmlns="http://www.w3.org/2000/svg"
 width="1280.000000pt" height="1159.000000pt" viewBox="0 0 1280.000000 1159.000000"
 preserveAspectRatio="xMidYMid meet">
<metadata>
Created by potrace 1.15, written by Peter Selinger 2001-2017
</metadata>
<g transform="translate(0.000000,1159.000000) scale(0.100000,-0.100000)"
fill="#000000" stroke="none">
<path d="M6492 11223 c-107 -11 -172 -26 -250 -59 -18 -8 -48 -14 -66 -14 -25
0 -35 -5 -39 -19 -3 -12 -33 -34 -75 -55 -38 -19 -72 -41 -75 -48 -2 -8 -24
-27 -48 -43 -24 -17 -48 -36 -52 -42 -4 -7 -15 -13 -23 -13 -8 0 -19 -11 -24
-25 -16 -42 -63 -86 -120 -111 -79 -36 -220 -184 -220 -231 0 -24 -14 -51 -51
-101 -52 -69 -77 -121 -86 -182 -3 -19 -16 -51 -28 -71 -27 -41 -33 -68 -21
-87 5 -8 1 -21 -11 -34 -12 -13 -18 -36 -19 -69 0 -27 -3 -52 -7 -56 -4 -3 -7
-14 -7 -23 0 -9 -11 -37 -24 -62 -31 -59 -73 -322 -54 -345 6 -8 4 -21 -5 -40
-8 -15 -15 -52 -15 -81 0 -41 -5 -59 -22 -77 -20 -21 -21 -25 -6 -47 18 -28
16 -180 -3 -216 -7 -13 -7 -23 -1 -27 5 -3 7 -11 4 -19 -3 -7 0 -25 6 -40 6
-17 7 -33 1 -40 -4 -6 -5 -20 0 -31 4 -11 8 -46 8 -78 1 -50 4 -60 21 -64 11
-3 20 -10 21 -17 0 -6 3 -67 5 -136 6 -180 12 -252 21 -259 21 -15 30 -100 32
-293 l1 -208 -28 -1 c-15 -1 -31 0 -37 1 -14 3 -86 9 -192 16 -95 7 -205 -7
-232 -29 -14 -12 -179 -53 -261 -65 -45 -7 -123 -43 -135 -62 -3 -6 -57 -44
-119 -85 -83 -54 -139 -102 -209 -175 -52 -55 -100 -100 -106 -100 -6 0 -11
-6 -11 -14 0 -7 -22 -47 -50 -87 -27 -41 -50 -81 -50 -90 0 -9 -7 -22 -15 -29
-8 -7 -15 -20 -15 -29 0 -9 -7 -25 -15 -35 -8 -11 -15 -30 -15 -41 0 -12 -6
-35 -14 -51 -8 -16 -17 -54 -21 -84 -4 -30 -11 -59 -15 -65 -4 -5 -7 -37 -8
-70 0 -51 -6 -72 -41 -137 -27 -50 -41 -90 -41 -114 0 -39 -20 -71 -94 -152
-39 -43 -106 -163 -106 -191 0 -17 -124 -151 -139 -151 -5 0 -12 -13 -16 -30
-3 -16 -15 -40 -25 -53 -10 -13 -22 -37 -25 -53 -10 -44 -27 -85 -50 -124 -22
-35 -37 -78 -41 -115 -2 -11 -6 -51 -10 -90 -8 -72 -39 -147 -71 -171 -15 -10
-18 -29 -18 -117 0 -100 -1 -106 -26 -131 -23 -23 -28 -40 -40 -139 -23 -183
-13 -439 19 -517 22 -53 26 -66 28 -102 2 -27 13 -50 40 -81 32 -37 38 -50 38
-93 1 -37 7 -55 24 -72 12 -12 22 -29 22 -38 0 -8 5 -25 12 -37 7 -12 11 -34
9 -48 -1 -14 5 -31 13 -39 9 -7 16 -19 16 -27 0 -16 89 -102 106 -103 6 0 23
-9 37 -20 22 -18 25 -27 23 -73 -2 -28 -1 -58 2 -65 5 -15 36 -16 61 0 15 9
24 8 45 -5 14 -10 26 -24 26 -31 0 -8 16 -27 35 -43 20 -15 50 -42 68 -59 18
-18 42 -33 52 -35 19 -4 56 -58 48 -71 -7 -14 40 -67 69 -77 15 -5 28 -16 28
-24 0 -18 32 -47 51 -47 8 0 23 -9 32 -21 10 -11 31 -25 46 -30 21 -7 38 -28
61 -70 23 -43 42 -65 69 -78 20 -11 46 -31 56 -45 11 -14 26 -26 33 -26 7 0
11 -3 8 -8 -12 -20 138 -182 170 -182 3 0 19 -10 34 -23 81 -64 104 -73 245
-103 38 -8 73 -20 77 -27 10 -16 10 -35 -1 -41 -5 -3 -9 -51 -10 -107 -2 -75
2 -107 13 -124 8 -12 18 -40 21 -61 4 -21 13 -48 19 -59 7 -11 18 -40 25 -65
13 -45 19 -61 40 -113 6 -15 11 -36 11 -46 0 -10 7 -24 15 -31 8 -7 14 -18 13
-24 -1 -6 10 -36 25 -67 14 -31 31 -76 37 -100 25 -98 31 -126 37 -169 3 -25
10 -50 14 -56 5 -6 12 -33 15 -60 3 -27 10 -60 15 -74 5 -14 13 -67 17 -119 6
-79 10 -96 27 -105 11 -6 22 -12 24 -13 2 -2 -3 -11 -11 -20 -10 -11 -18 -48
-21 -98 -6 -76 -7 -81 -44 -115 -49 -44 -198 -120 -238 -120 -16 0 -41 -9 -55
-20 -14 -11 -39 -20 -57 -20 -17 0 -34 -4 -37 -9 -4 -5 -25 -12 -49 -16 -23
-4 -50 -14 -59 -22 -9 -8 -21 -12 -27 -9 -6 4 -27 -4 -48 -18 -40 -26 -192
-79 -262 -91 -22 -4 -41 -11 -41 -16 0 -5 -9 -9 -20 -9 -10 0 -39 -11 -64 -25
-25 -14 -52 -25 -60 -25 -16 0 -66 -59 -66 -79 0 -24 33 -61 55 -61 12 0 31
-8 43 -18 20 -17 38 -18 221 -15 171 3 205 1 238 -13 29 -13 65 -17 159 -16
66 1 134 6 149 12 42 16 103 3 121 -25 24 -37 66 -45 233 -44 155 0 155 1 210
32 50 29 65 32 142 33 47 0 91 4 97 8 7 4 54 10 105 13 59 3 101 11 117 21 17
11 56 18 127 20 71 3 106 8 114 18 6 8 18 14 26 14 7 0 23 9 35 20 12 11 34
20 49 20 41 0 128 43 136 67 3 7 -11 22 -30 35 -19 13 -60 42 -90 66 -31 23
-60 42 -65 42 -5 0 -15 6 -21 14 -6 7 -24 16 -39 19 -15 3 -60 31 -100 61 -40
30 -91 61 -113 70 -23 9 -66 33 -98 54 -31 20 -70 44 -86 52 -41 20 -45 28
-45 81 0 32 -5 49 -15 53 -8 3 -15 16 -15 29 0 14 -7 30 -15 37 -8 7 -15 18
-15 26 0 7 -21 23 -46 36 -49 24 -107 90 -156 175 -16 28 -36 57 -43 63 -8 7
-15 24 -15 39 0 14 -8 40 -18 56 -10 17 -22 44 -26 60 -14 60 -36 182 -47 255
-5 41 -14 94 -20 118 -5 23 -9 110 -9 194 0 127 -3 154 -17 170 -15 17 -14 18
22 18 26 0 46 -7 63 -22 20 -20 36 -23 120 -26 71 -3 102 -8 115 -20 15 -13
23 -14 50 -4 20 7 86 10 177 8 150 -3 330 9 365 25 25 11 99 22 141 21 23 0
35 6 45 24 12 24 17 24 107 23 57 -1 98 3 105 10 13 13 198 15 278 2 83 -14
251 8 282 37 13 12 34 22 48 22 14 0 30 5 36 11 5 5 31 16 56 24 l47 14 6 -27
c3 -15 10 -42 16 -60 14 -47 11 -231 -4 -250 -15 -17 -13 -41 9 -99 17 -47 11
-123 -13 -157 -8 -11 -14 -33 -14 -49 0 -40 -27 -92 -61 -121 -16 -14 -29 -31
-29 -39 0 -20 -84 -87 -108 -87 -14 0 -19 -7 -20 -31 0 -17 -5 -36 -10 -42 -5
-7 -12 -27 -14 -46 -4 -29 0 -38 35 -70 l39 -37 -43 -50 c-77 -89 -267 -265
-324 -301 -40 -25 -55 -41 -55 -57 0 -13 -3 -26 -7 -30 -4 -3 -8 -14 -9 -24
-1 -9 -5 -26 -9 -37 -5 -17 0 -23 27 -32 64 -23 258 -11 299 18 31 21 123 36
141 22 7 -6 53 -13 103 -17 49 -3 94 -11 99 -16 6 -6 18 -10 28 -10 9 0 22 -8
27 -19 8 -15 28 -19 113 -25 131 -9 193 -23 238 -52 34 -22 100 -31 100 -12 0
4 11 8 24 8 14 0 27 3 30 8 2 4 21 7 41 6 23 -1 38 3 42 12 9 24 129 74 163
68 17 -4 36 -2 44 5 8 6 43 11 82 10 45 -1 90 6 129 18 46 16 78 19 140 16 44
-3 84 -9 90 -14 5 -5 36 -9 68 -9 43 0 67 5 87 20 16 11 32 19 37 18 14 -4 83
23 83 33 0 5 -16 19 -35 31 -19 13 -36 32 -39 43 -3 13 -30 32 -69 52 -62 30
-81 36 -172 48 -100 14 -121 18 -135 29 -48 36 -87 49 -169 54 -50 3 -104 13
-129 24 -24 10 -62 18 -85 18 -26 0 -51 8 -67 20 -14 11 -32 20 -41 20 -9 0
-22 7 -29 15 -7 8 -18 15 -24 15 -51 0 -212 132 -200 164 4 9 -4 25 -20 39
-14 13 -26 34 -26 45 0 11 -5 33 -11 49 -6 15 -10 67 -10 115 1 48 -3 89 -9
93 -5 3 -9 18 -9 33 0 15 -2 45 -5 67 -3 22 -5 139 -5 261 0 163 4 231 14 260
8 21 14 51 15 66 0 15 5 30 10 33 6 4 9 41 8 90 -2 78 -1 85 22 104 14 11 32
20 41 21 9 0 24 10 35 21 10 12 35 32 54 44 19 13 45 32 57 44 12 12 27 21 33
21 6 0 15 11 21 24 12 25 35 36 80 36 24 0 69 36 69 55 0 26 40 86 75 111 22
16 48 39 58 51 10 13 25 23 33 23 7 0 20 15 27 32 8 18 21 39 30 47 10 7 17
19 17 26 0 7 16 20 35 29 19 9 35 23 35 31 0 8 12 20 28 27 15 7 27 20 27 28
0 8 12 21 28 28 19 9 27 21 27 39 0 27 49 79 101 107 16 9 30 30 37 55 8 24
24 48 43 62 17 12 28 27 25 35 -3 7 6 22 19 32 12 10 23 29 24 43 1 60 13 99
31 99 15 0 25 12 35 40 12 35 27 60 35 60 20 0 60 48 54 64 -4 12 4 20 30 31
50 21 69 53 55 91 -10 27 -8 32 25 68 20 22 36 48 36 57 0 10 4 20 9 23 4 3
11 28 15 55 3 27 15 60 26 74 11 14 20 31 20 37 0 7 22 41 49 75 27 34 55 82
62 106 7 24 16 49 20 54 30 44 47 194 30 270 -5 21 -2 37 11 56 23 30 37 162
19 173 -6 4 -11 22 -11 41 0 19 -4 37 -10 40 -13 8 -33 81 -35 125 0 20 -11
56 -23 81 -12 25 -22 50 -22 57 0 6 -11 28 -25 48 -14 20 -25 49 -25 63 0 15
-4 31 -9 36 -5 6 -11 21 -13 34 -1 13 -12 29 -23 35 -11 6 -22 12 -24 14 -2 1
-5 10 -6 20 -6 54 -53 150 -67 137 -11 -11 -30 26 -30 59 0 37 -36 81 -72 88
-11 1 -28 19 -39 38 -11 19 -49 62 -85 95 -36 33 -85 79 -109 102 -26 25 -50
40 -58 37 -15 -6 -45 17 -45 35 0 6 -11 17 -23 26 -13 8 -29 33 -36 55 -6 22
-16 40 -20 40 -13 0 -57 80 -65 116 -4 17 -18 42 -31 54 -13 12 -26 39 -30 60
-4 21 -13 46 -20 57 -8 10 -15 24 -15 31 0 7 -16 39 -36 70 -38 58 -94 172
-94 190 0 5 -9 20 -19 34 -11 13 -23 36 -26 50 -4 14 -31 47 -62 73 -30 27
-61 62 -69 80 -16 39 -94 112 -140 131 -19 8 -34 20 -34 27 -1 18 -83 77 -108
77 -12 0 -45 19 -74 43 -79 64 -100 77 -124 77 -12 0 -24 5 -26 11 -2 7 -29
14 -60 16 -47 3 -63 10 -90 35 -18 17 -52 46 -75 65 -23 19 -45 43 -48 54 -4
10 -31 45 -61 76 -30 32 -53 62 -50 68 2 6 -11 42 -29 80 -23 46 -31 73 -24
81 11 13 9 64 -4 81 -5 7 -12 134 -15 283 l-5 271 32 31 c18 17 42 37 54 43
42 23 102 57 112 65 6 4 28 13 50 19 22 7 58 21 80 31 97 46 141 52 321 40 92
-6 182 -8 199 -4 32 6 118 -22 208 -67 22 -11 47 -17 56 -14 9 3 26 -2 37 -10
10 -8 26 -15 34 -15 8 0 37 -9 65 -19 27 -11 76 -27 108 -36 31 -9 57 -20 57
-25 0 -7 14 -12 95 -30 22 -5 54 -12 70 -16 17 -3 44 -17 62 -30 17 -13 35
-24 38 -24 7 0 44 -16 140 -60 93 -43 233 -90 269 -90 17 0 36 -4 42 -10 5 -5
58 -10 117 -11 59 0 126 -7 150 -14 23 -6 76 -13 117 -14 89 -2 161 -16 211
-42 55 -28 110 -25 141 9 14 15 31 37 37 49 17 34 11 120 -11 148 -10 13 -16
30 -13 37 3 8 -10 26 -32 44 -50 40 -220 146 -260 163 -18 7 -38 19 -44 27 -6
8 -17 14 -25 14 -7 0 -30 11 -50 25 -21 14 -45 25 -53 23 -17 -2 -80 28 -135
66 -20 13 -65 39 -101 57 -36 18 -65 38 -65 44 0 6 -15 19 -32 28 -31 16 -60
35 -154 98 -78 52 -414 382 -414 406 0 5 -13 22 -29 39 -15 16 -47 61 -71 99
-23 39 -45 72 -49 75 -35 28 -81 144 -81 204 0 26 -5 36 -20 41 -11 4 -20 12
-19 18 1 7 -5 29 -14 49 -10 21 -17 46 -17 56 0 11 -7 25 -15 32 -8 7 -15 17
-15 23 0 6 -8 20 -18 31 -10 12 -27 41 -37 66 -10 25 -33 61 -50 80 -17 19
-41 48 -53 64 -43 57 -118 131 -152 150 -19 11 -57 39 -84 62 -27 23 -54 40
-61 38 -7 -3 -29 8 -48 25 -19 17 -42 31 -51 31 -17 0 -82 34 -107 56 -9 8
-63 30 -120 49 -110 37 -218 51 -361 48 -71 -2 -79 0 -96 22 -19 24 -23 24
-148 22 -71 -1 -180 -7 -242 -14z"/>
</g>
</svg>
