<svg id="svg" version="1.1" xmlns="http://www.w3.org/2000/svg" xmlns:xlink="http://www.w3.org/1999/xlink" width="400" height="408.3333333333333" viewBox="0, 0, 400,408.3333333333333"><g id="svgg"><path id="path0" d="M191.700 0.276 C 192.085 0.376,192.715 0.376,193.100 0.276 C 193.485 0.175,193.170 0.093,192.400 0.093 C 191.630 0.093,191.315 0.175,191.700 0.276 M206.900 0.276 C 207.285 0.376,207.915 0.376,208.300 0.276 C 208.685 0.175,208.370 0.093,207.600 0.093 C 206.830 0.093,206.515 0.175,206.900 0.276 M164.412 6.784 C 164.088 6.989,163.921 7.254,164.041 7.374 C 164.160 7.494,164.605 7.329,165.029 7.009 C 165.873 6.371,165.360 6.185,164.412 6.784 M234.971 7.009 C 235.395 7.329,235.840 7.494,235.959 7.374 C 236.210 7.123,235.194 6.409,234.600 6.419 C 234.380 6.422,234.547 6.688,234.971 7.009 M160.300 8.520 C 159.695 8.759,159.200 9.187,159.200 9.471 C 159.200 9.864,159.535 9.828,160.600 9.319 C 162.754 8.292,162.512 7.646,160.300 8.520 M238.000 8.150 C 238.000 8.280,238.894 8.840,239.988 9.394 C 241.364 10.091,241.908 10.225,241.756 9.828 C 241.635 9.514,241.055 9.082,240.468 8.869 C 239.881 8.656,239.085 8.354,238.700 8.198 C 238.315 8.042,238.000 8.021,238.000 8.150 M156.719 10.757 C 153.968 12.324,153.848 12.653,156.500 11.357 C 157.765 10.739,158.800 10.091,158.800 9.917 C 158.800 9.743,158.755 9.619,158.700 9.643 C 158.645 9.667,157.754 10.168,156.719 10.757 M242.400 10.584 C 242.400 10.694,243.120 11.151,244.000 11.600 C 244.880 12.049,245.600 12.326,245.600 12.216 C 245.600 12.106,244.880 11.649,244.000 11.200 C 243.120 10.751,242.400 10.474,242.400 10.584 M152.500 13.246 C 151.137 14.119,150.695 14.706,151.900 14.043 C 152.818 13.539,154.256 12.427,154.000 12.419 C 153.890 12.416,153.215 12.788,152.500 13.246 M148.051 16.030 C 146.709 16.926,145.500 17.838,145.365 18.056 C 144.881 18.840,145.454 18.751,146.485 17.884 C 147.063 17.398,147.997 16.662,148.561 16.249 C 150.614 14.746,150.995 14.425,150.746 14.413 C 150.606 14.406,149.393 15.133,148.051 16.030 M250.000 15.167 C 250.963 15.952,251.600 16.208,251.600 15.810 C 251.600 15.706,251.015 15.335,250.300 14.986 L 249.000 14.352 250.000 15.167 M253.215 17.561 C 253.977 18.200,254.690 18.633,254.800 18.525 C 255.044 18.285,252.754 16.405,252.215 16.402 C 252.003 16.401,252.453 16.922,253.215 17.561 M143.400 19.600 C 143.002 20.040,142.839 20.394,143.038 20.387 C 143.503 20.371,144.800 19.391,144.800 19.056 C 144.800 18.548,144.109 18.816,143.400 19.600 M255.600 19.089 C 255.600 19.592,256.743 20.590,257.012 20.321 C 257.118 20.215,256.844 19.802,256.402 19.402 C 255.961 19.003,255.600 18.862,255.600 19.089 M140.894 22.012 C 139.183 23.568,139.688 23.557,141.461 22.000 C 142.213 21.340,142.687 20.805,142.514 20.812 C 142.341 20.818,141.612 21.358,140.894 22.012 M258.401 21.737 C 258.951 22.362,259.760 23.059,260.200 23.286 C 261.042 23.720,261.018 23.693,258.801 21.797 L 257.403 20.600 258.401 21.737 M173.212 21.584 C 172.888 21.789,172.727 22.061,172.854 22.188 C 173.169 22.503,174.400 22.001,174.400 21.557 C 174.400 21.101,173.960 21.111,173.212 21.584 M171.600 22.400 C 171.600 22.646,171.420 22.736,171.200 22.600 C 170.980 22.464,170.800 22.554,170.800 22.800 C 170.800 23.046,170.632 23.144,170.428 23.017 C 170.223 22.891,169.942 22.970,169.804 23.193 C 169.455 23.759,170.411 23.677,171.554 23.043 C 172.170 22.701,172.347 22.415,172.054 22.233 C 171.804 22.079,171.600 22.154,171.600 22.400 M228.000 22.810 C 229.715 23.737,230.988 23.868,229.841 23.000 C 229.424 22.684,228.929 22.520,228.741 22.636 C 228.553 22.752,228.400 22.695,228.400 22.509 C 228.400 22.323,227.995 22.144,227.500 22.112 C 226.780 22.065,226.880 22.204,228.000 22.810 M136.480 25.680 C 136.216 25.944,136.000 26.298,136.000 26.467 C 136.000 26.965,137.118 26.390,137.357 25.769 C 137.623 25.075,137.135 25.025,136.480 25.680 M164.700 25.829 C 163.205 26.640,163.296 26.978,164.800 26.200 C 165.460 25.859,166.000 25.494,166.000 25.390 C 166.000 25.132,165.957 25.147,164.700 25.829 M234.549 25.692 C 237.234 27.514,240.119 29.215,240.269 29.064 C 240.452 28.881,236.578 26.457,234.800 25.642 C 233.953 25.254,233.915 25.262,234.549 25.692 M161.400 27.790 C 160.520 28.332,159.959 28.781,160.153 28.788 C 160.555 28.802,163.200 27.222,163.200 26.967 C 163.200 26.699,163.084 26.752,161.400 27.790 M133.329 29.300 C 132.086 30.681,131.725 31.521,132.768 30.604 C 133.606 29.868,134.616 28.400,134.284 28.400 C 134.204 28.400,133.775 28.805,133.329 29.300 M265.905 29.004 C 266.136 29.447,266.729 30.167,267.221 30.604 C 268.115 31.399,268.116 31.399,267.695 30.596 C 267.464 30.153,266.871 29.433,266.379 28.996 C 265.485 28.201,265.484 28.201,265.905 29.004 M155.402 31.998 C 155.003 32.439,154.862 32.800,155.089 32.800 C 155.592 32.800,156.590 31.657,156.321 31.388 C 156.215 31.282,155.802 31.556,155.402 31.998 M243.600 31.489 C 243.600 31.992,244.743 32.990,245.012 32.721 C 245.118 32.615,244.844 32.202,244.402 31.802 C 243.961 31.403,243.600 31.262,243.600 31.489 M153.000 34.000 C 152.602 34.440,152.456 34.800,152.676 34.800 C 152.896 34.800,153.402 34.440,153.800 34.000 C 154.198 33.560,154.344 33.200,154.124 33.200 C 153.904 33.200,153.398 33.560,153.000 34.000 M246.200 34.000 C 246.598 34.440,247.104 34.800,247.324 34.800 C 247.544 34.800,247.398 34.440,247.000 34.000 C 246.602 33.560,246.096 33.200,245.876 33.200 C 245.656 33.200,245.802 33.560,246.200 34.000 M128.501 35.100 C 126.500 37.675,124.714 40.448,124.922 40.656 C 125.032 40.766,125.448 40.303,125.847 39.628 C 126.246 38.952,126.714 38.400,126.886 38.400 C 127.059 38.400,127.200 38.212,127.200 37.983 C 127.200 37.754,127.384 37.349,127.608 37.083 C 129.371 34.995,129.999 34.159,130.000 33.900 C 130.000 33.334,129.665 33.602,128.501 35.100 M270.918 35.237 C 271.520 35.987,272.163 36.790,272.348 37.021 C 272.533 37.253,273.187 38.202,273.801 39.129 C 274.415 40.057,275.002 40.731,275.106 40.627 C 275.393 40.340,271.038 34.279,270.390 34.063 C 270.078 33.959,270.316 34.488,270.918 35.237 M248.000 35.304 C 248.000 35.377,249.305 36.584,250.900 37.986 L 253.800 40.535 251.600 38.238 C 249.700 36.255,248.000 34.869,248.000 35.304 M148.660 38.064 L 146.200 40.529 148.400 38.601 C 151.626 35.774,151.803 35.600,151.446 35.600 C 151.267 35.600,150.013 36.709,148.660 38.064 M144.212 43.012 C 143.386 44.019,142.786 44.920,142.879 45.012 C 142.971 45.105,143.730 44.363,144.565 43.365 C 145.399 42.366,145.999 41.466,145.898 41.364 C 145.796 41.263,145.037 42.004,144.212 43.012 M254.029 41.400 C 254.032 41.620,254.746 42.610,255.616 43.600 C 256.486 44.590,257.193 45.220,257.187 45.000 C 257.181 44.780,256.467 43.790,255.600 42.800 C 254.733 41.810,254.026 41.180,254.029 41.400 M122.600 44.400 C 122.259 45.060,122.069 45.600,122.179 45.600 C 122.289 45.600,122.659 45.060,123.000 44.400 C 123.341 43.740,123.531 43.200,123.421 43.200 C 123.311 43.200,122.941 43.740,122.600 44.400 M277.000 44.400 C 277.341 45.060,277.711 45.600,277.821 45.600 C 277.931 45.600,277.741 45.060,277.400 44.400 C 277.059 43.740,276.689 43.200,276.579 43.200 C 276.469 43.200,276.659 43.740,277.000 44.400 M141.260 46.805 C 140.774 47.462,140.541 48.000,140.742 48.000 C 141.159 48.000,142.549 46.015,142.304 45.770 C 142.215 45.682,141.746 46.148,141.260 46.805 M257.623 45.800 C 257.616 46.364,259.101 48.232,259.355 47.978 C 259.470 47.863,259.129 47.236,258.597 46.584 C 258.064 45.933,257.626 45.580,257.623 45.800 M120.919 47.400 C 120.552 48.170,120.127 48.800,119.974 48.800 C 119.565 48.800,118.650 51.183,118.946 51.479 C 119.253 51.787,119.126 51.989,120.700 48.700 C 121.411 47.215,121.901 46.000,121.790 46.000 C 121.678 46.000,121.287 46.630,120.919 47.400 M279.285 48.669 C 280.876 51.993,280.746 51.787,281.054 51.479 C 281.361 51.172,280.428 48.800,280.000 48.800 C 279.833 48.800,279.472 48.256,279.196 47.591 C 278.921 46.927,278.534 46.283,278.337 46.161 C 278.139 46.039,278.566 47.168,279.285 48.669 M137.440 52.640 C 136.862 53.675,136.460 54.594,136.548 54.682 C 136.636 54.770,137.182 53.995,137.760 52.960 C 138.338 51.925,138.740 51.006,138.652 50.918 C 138.564 50.830,138.018 51.605,137.440 52.640 M261.200 50.950 C 261.200 51.326,263.310 54.823,263.452 54.682 C 263.627 54.507,261.635 50.800,261.366 50.800 C 261.275 50.800,261.200 50.867,261.200 50.950 M111.293 80.400 C 111.293 81.170,111.375 81.485,111.476 81.100 C 111.576 80.715,111.576 80.085,111.476 79.700 C 111.375 79.315,111.293 79.630,111.293 80.400 M288.493 80.400 C 288.493 81.170,288.575 81.485,288.676 81.100 C 288.776 80.715,288.776 80.085,288.676 79.700 C 288.575 79.315,288.493 79.630,288.493 80.400 M110.800 99.200 L 110.800 111.600 78.600 111.600 C 57.400 111.600,46.400 111.737,46.400 112.000 C 46.400 112.263,57.467 112.400,78.800 112.400 L 111.200 112.400 111.200 99.600 C 111.200 92.560,111.110 86.800,111.000 86.800 C 110.890 86.800,110.800 92.380,110.800 99.200 M288.894 99.500 L 288.800 112.400 321.200 112.400 C 342.533 112.400,353.600 112.263,353.600 112.000 C 353.600 111.737,342.602 111.600,321.406 111.600 L 289.211 111.600 289.100 99.100 L 288.988 86.600 288.894 99.500 M127.694 99.900 L 127.600 112.400 200.000 112.400 L 272.400 112.400 272.306 99.900 L 272.212 87.400 272.100 99.500 L 271.988 111.600 200.000 111.600 L 128.012 111.600 127.900 99.500 L 127.788 87.400 127.694 99.900 M360.412 113.777 C 362.067 114.387,365.375 116.105,366.800 117.096 C 367.749 117.755,367.772 117.755,367.251 117.096 C 366.585 116.252,360.568 113.189,359.654 113.228 C 359.294 113.244,359.635 113.490,360.412 113.777 M35.600 115.225 C 34.390 115.891,33.130 116.730,32.800 117.091 C 32.265 117.675,32.309 117.673,33.200 117.073 C 33.750 116.703,35.190 115.869,36.400 115.219 C 37.610 114.570,38.420 114.033,38.200 114.026 C 37.980 114.020,36.810 114.559,35.600 115.225 M29.928 119.328 C 27.972 121.085,26.431 123.200,27.105 123.200 C 27.323 123.200,27.726 122.930,28.000 122.600 C 28.274 122.270,28.399 122.000,28.279 122.000 C 28.158 122.000,28.989 121.113,30.126 120.029 C 32.666 117.605,32.500 117.016,29.928 119.328 M368.000 117.892 C 368.000 118.301,370.906 121.200,371.317 121.200 C 372.027 121.200,371.453 120.376,369.800 119.021 C 368.810 118.210,368.000 117.702,368.000 117.892 M372.013 122.076 C 372.006 122.448,372.192 122.871,372.427 123.016 C 373.132 123.452,373.230 122.993,372.609 122.171 C 372.097 121.494,372.024 121.483,372.013 122.076 M374.481 126.191 C 374.959 127.176,375.419 127.914,375.503 127.830 C 375.684 127.649,374.068 124.400,373.797 124.400 C 373.694 124.400,374.002 125.206,374.481 126.191 M63.100 130.300 C 71.955 130.360,86.445 130.360,95.300 130.300 C 104.155 130.240,96.910 130.191,79.200 130.191 C 61.490 130.191,54.245 130.240,63.100 130.300 M163.868 130.300 C 183.706 130.357,216.286 130.357,236.268 130.300 C 256.251 130.243,240.020 130.196,200.200 130.196 C 160.380 130.196,144.031 130.243,163.868 130.300 M43.900 131.503 C 43.295 131.878,42.800 132.296,42.800 132.431 C 42.800 132.567,42.440 133.093,42.000 133.600 C 41.138 134.594,40.976 135.200,41.573 135.200 C 41.778 135.200,42.063 134.831,42.206 134.380 C 42.349 133.929,43.088 132.939,43.847 132.180 C 44.606 131.421,45.176 130.805,45.113 130.811 C 45.051 130.816,44.505 131.128,43.900 131.503 M356.911 132.958 C 357.730 134.034,358.400 135.069,358.400 135.258 C 358.400 135.446,358.580 135.600,358.800 135.600 C 359.351 135.600,359.301 134.968,358.700 134.312 C 358.425 134.012,358.010 133.429,357.778 133.017 C 357.546 132.605,356.921 131.983,356.389 131.634 C 355.601 131.118,355.698 131.363,356.911 132.958 M358.800 137.600 C 358.800 138.260,358.980 138.800,359.200 138.800 C 359.420 138.800,359.600 138.260,359.600 137.600 C 359.600 136.940,359.420 136.400,359.200 136.400 C 358.980 136.400,358.800 136.940,358.800 137.600 M40.400 140.000 C 40.400 140.440,40.580 140.800,40.800 140.800 C 41.020 140.800,41.200 140.440,41.200 140.000 C 41.200 139.560,41.020 139.200,40.800 139.200 C 40.580 139.200,40.400 139.560,40.400 140.000 M359.200 142.400 C 359.200 143.060,359.380 143.600,359.600 143.600 C 359.820 143.600,360.000 143.060,360.000 142.400 C 360.000 141.740,359.820 141.200,359.600 141.200 C 359.380 141.200,359.200 141.740,359.200 142.400 M40.000 144.600 C 40.000 145.150,40.180 145.600,40.400 145.600 C 40.620 145.600,40.800 145.150,40.800 144.600 C 40.800 144.050,40.620 143.600,40.400 143.600 C 40.180 143.600,40.000 144.050,40.000 144.600 M359.600 146.800 C 359.600 147.240,359.780 147.600,360.000 147.600 C 360.220 147.600,360.400 147.240,360.400 146.800 C 360.400 146.360,360.220 146.000,360.000 146.000 C 359.780 146.000,359.600 146.360,359.600 146.800 M39.600 148.976 C 39.600 149.539,39.780 150.000,40.000 150.000 C 40.220 150.000,40.400 149.651,40.400 149.224 C 40.400 148.797,40.220 148.336,40.000 148.200 C 39.773 148.060,39.600 148.396,39.600 148.976 M290.000 156.600 C 290.274 156.930,290.678 157.200,290.898 157.200 C 291.121 157.200,291.078 156.935,290.800 156.600 C 290.526 156.270,290.122 156.000,289.902 156.000 C 289.679 156.000,289.722 156.265,290.000 156.600 M108.775 157.870 C 107.880 158.678,106.869 159.893,106.528 160.570 L 105.908 161.800 106.817 160.800 C 107.317 160.250,108.455 159.035,109.346 158.100 C 111.336 156.012,110.987 155.871,108.775 157.870 M130.375 158.128 C 131.351 159.148,132.235 159.898,132.339 159.794 C 132.603 159.530,131.234 158.074,129.800 157.093 C 128.869 156.456,128.998 156.689,130.375 158.128 M270.000 158.000 C 269.457 158.410,269.149 158.883,269.317 159.050 C 269.485 159.218,270.012 158.966,270.489 158.489 C 271.610 157.368,271.278 157.036,270.000 158.000 M294.279 161.132 C 294.894 162.234,295.456 163.078,295.527 163.007 C 295.732 162.802,294.057 159.682,293.586 159.391 C 293.352 159.247,293.664 160.030,294.279 161.132 M267.846 160.586 C 267.096 161.731,267.049 162.000,267.600 162.000 C 267.820 162.000,268.000 161.730,268.000 161.400 C 268.000 161.070,268.161 160.800,268.357 160.800 C 268.554 160.800,268.818 160.530,268.945 160.200 C 269.313 159.240,268.553 159.507,267.846 160.586 M132.834 160.600 C 132.834 160.820,133.178 161.630,133.600 162.400 C 134.022 163.170,134.366 163.620,134.366 163.400 C 134.366 163.180,134.022 162.370,133.600 161.600 C 133.178 160.830,132.834 160.380,132.834 160.600 M38.493 162.400 C 38.493 163.170,38.575 163.485,38.676 163.100 C 38.776 162.715,38.776 162.085,38.676 161.700 C 38.575 161.315,38.493 161.630,38.493 162.400 M19.600 164.576 C 19.600 164.893,19.780 165.264,20.000 165.400 C 20.220 165.536,20.400 165.277,20.400 164.824 C 20.400 164.371,20.220 164.000,20.000 164.000 C 19.780 164.000,19.600 164.259,19.600 164.576 M379.600 165.024 C 379.600 165.604,379.773 165.940,380.000 165.800 C 380.220 165.664,380.400 165.203,380.400 164.776 C 380.400 164.349,380.220 164.000,380.000 164.000 C 379.780 164.000,379.600 164.461,379.600 165.024 M296.514 169.000 C 296.517 170.100,296.595 170.503,296.687 169.895 C 296.779 169.286,296.777 168.386,296.682 167.895 C 296.587 167.403,296.511 167.900,296.514 169.000 M19.200 169.000 C 19.200 169.550,19.380 170.000,19.600 170.000 C 19.820 170.000,20.000 169.550,20.000 169.000 C 20.000 168.450,19.820 168.000,19.600 168.000 C 19.380 168.000,19.200 168.450,19.200 169.000 M380.000 169.400 C 380.000 169.950,380.180 170.400,380.400 170.400 C 380.620 170.400,380.800 169.950,380.800 169.400 C 380.800 168.850,380.620 168.400,380.400 168.400 C 380.180 168.400,380.000 168.850,380.000 169.400 M18.800 173.400 C 18.800 173.950,18.980 174.400,19.200 174.400 C 19.420 174.400,19.600 173.950,19.600 173.400 C 19.600 172.850,19.420 172.400,19.200 172.400 C 18.980 172.400,18.800 172.850,18.800 173.400 M380.667 173.067 C 380.252 173.482,380.353 174.800,380.800 174.800 C 381.020 174.800,381.200 174.350,381.200 173.800 C 381.200 172.753,381.108 172.626,380.667 173.067 M295.265 175.017 C 294.595 176.488,294.723 176.802,295.447 175.465 C 295.786 174.840,295.988 174.254,295.896 174.163 C 295.805 174.071,295.521 174.456,295.265 175.017 M266.800 175.524 C 266.800 175.701,267.064 176.196,267.387 176.624 C 267.987 177.416,268.194 176.972,267.757 175.833 C 267.506 175.179,266.800 174.951,266.800 175.524 M133.200 176.400 C 132.668 177.395,131.528 178.777,129.800 180.522 C 128.583 181.751,129.413 181.318,131.148 179.819 C 132.258 178.860,134.146 176.013,133.861 175.728 C 133.753 175.620,133.456 175.922,133.200 176.400 M106.539 177.430 C 107.116 178.595,110.094 181.600,110.671 181.600 C 110.819 181.600,110.282 180.925,109.478 180.100 C 108.673 179.275,107.546 178.060,106.972 177.400 L 105.929 176.200 106.539 177.430 M18.400 178.224 C 18.400 178.804,18.573 179.140,18.800 179.000 C 19.020 178.864,19.200 178.403,19.200 177.976 C 19.200 177.549,19.020 177.200,18.800 177.200 C 18.580 177.200,18.400 177.661,18.400 178.224 M380.800 178.176 C 380.800 178.493,380.980 178.864,381.200 179.000 C 381.420 179.136,381.600 178.877,381.600 178.424 C 381.600 177.971,381.420 177.600,381.200 177.600 C 380.980 177.600,380.800 177.859,380.800 178.176 M268.800 178.753 C 268.800 178.946,269.475 179.605,270.300 180.217 L 271.800 181.329 270.422 179.864 C 268.953 178.305,268.800 178.200,268.800 178.753 M291.249 180.440 C 290.285 181.298,289.670 182.000,289.882 182.000 C 290.412 182.000,293.448 179.328,293.200 179.080 C 293.090 178.970,292.212 179.582,291.249 180.440 M18.000 182.600 C 18.000 183.196,18.172 183.541,18.400 183.400 C 18.620 183.264,18.800 182.904,18.800 182.600 C 18.800 182.296,18.620 181.936,18.400 181.800 C 18.172 181.659,18.000 182.004,18.000 182.600 M381.334 182.227 C 381.202 182.572,381.298 183.058,381.547 183.307 C 381.884 183.644,382.000 183.484,382.000 182.680 C 382.000 181.477,381.701 181.273,381.334 182.227 M113.790 183.448 C 114.147 183.804,114.559 183.974,114.707 183.826 C 114.856 183.678,114.712 183.389,114.388 183.184 C 113.443 182.587,113.087 182.744,113.790 183.448 M117.600 184.400 C 117.600 184.620,118.590 184.800,119.800 184.800 C 121.010 184.800,122.000 184.620,122.000 184.400 C 122.000 184.180,121.010 184.000,119.800 184.000 C 118.590 184.000,117.600 184.180,117.600 184.400 M279.000 184.400 C 278.859 184.628,279.204 184.800,279.800 184.800 C 280.396 184.800,280.741 184.628,280.600 184.400 C 280.464 184.180,280.104 184.000,279.800 184.000 C 279.496 184.000,279.136 184.180,279.000 184.400 M281.600 184.400 C 281.145 184.694,281.314 184.789,282.300 184.794 C 283.015 184.797,283.600 184.620,283.600 184.400 C 283.600 183.892,282.386 183.892,281.600 184.400 M17.600 187.024 C 17.600 187.604,17.773 187.940,18.000 187.800 C 18.220 187.664,18.400 187.203,18.400 186.776 C 18.400 186.349,18.220 186.000,18.000 186.000 C 17.780 186.000,17.600 186.461,17.600 187.024 M381.606 186.900 C 381.620 188.042,382.388 188.626,382.394 187.500 C 382.397 186.895,382.220 186.400,382.000 186.400 C 381.780 186.400,381.603 186.625,381.606 186.900 M17.212 191.420 C 17.223 192.454,17.277 192.509,17.654 191.861 C 17.961 191.332,17.958 190.998,17.641 190.681 C 17.320 190.360,17.203 190.559,17.212 191.420 M382.274 191.100 C 382.178 191.265,382.245 191.760,382.422 192.200 C 382.703 192.898,382.747 192.860,382.772 191.900 C 382.800 190.815,382.612 190.514,382.274 191.100 M16.806 196.100 C 16.811 196.828,16.886 196.885,17.200 196.400 C 17.701 195.624,17.701 195.200,17.200 195.200 C 16.980 195.200,16.803 195.605,16.806 196.100 M382.428 195.500 C 382.538 196.673,383.146 197.326,383.172 196.300 C 383.187 195.695,383.020 195.200,382.800 195.200 C 382.580 195.200,382.413 195.335,382.428 195.500 M383.074 199.900 C 382.978 200.065,383.045 200.560,383.222 201.000 C 383.503 201.698,383.547 201.660,383.572 200.700 C 383.600 199.615,383.412 199.314,383.074 199.900 M16.000 204.776 C 16.000 205.449,16.069 206.000,16.153 206.000 C 16.493 206.000,16.669 203.966,16.346 203.767 C 16.156 203.649,16.000 204.103,16.000 204.776 M366.000 213.824 C 366.000 214.387,366.163 214.746,366.362 214.623 C 366.562 214.500,366.631 214.039,366.516 213.600 C 366.228 212.499,366.000 212.598,366.000 213.824 M366.400 218.224 C 366.400 218.787,366.563 219.146,366.762 219.023 C 366.962 218.900,367.031 218.439,366.916 218.000 C 366.628 216.899,366.400 216.998,366.400 218.224 M366.828 222.500 C 366.813 223.105,366.980 223.600,367.200 223.600 C 367.669 223.600,367.669 223.293,367.200 222.200 C 366.895 221.491,366.853 221.525,366.828 222.500 M32.684 224.800 C 32.569 225.239,32.638 225.700,32.838 225.823 C 33.037 225.946,33.200 225.587,33.200 225.024 C 33.200 223.798,32.972 223.699,32.684 224.800 M367.200 227.200 C 367.200 227.947,367.307 228.053,367.680 227.680 C 368.053 227.307,368.053 227.093,367.680 226.720 C 367.307 226.347,367.200 226.453,367.200 227.200 M32.249 229.130 C 32.072 229.642,32.033 230.167,32.163 230.297 C 32.578 230.711,32.870 230.100,32.718 229.134 L 32.571 228.200 32.249 229.130 M367.600 231.576 C 367.600 232.029,367.780 232.400,368.000 232.400 C 368.220 232.400,368.400 232.141,368.400 231.824 C 368.400 231.507,368.220 231.136,368.000 231.000 C 367.780 230.864,367.600 231.123,367.600 231.576 M31.879 233.357 C 31.715 233.774,31.675 234.209,31.791 234.324 C 32.155 234.689,32.476 234.091,32.324 233.331 C 32.183 232.635,32.162 232.636,31.879 233.357 M368.000 236.200 C 368.000 236.796,368.172 237.141,368.400 237.000 C 368.620 236.864,368.800 236.504,368.800 236.200 C 368.800 235.896,368.620 235.536,368.400 235.400 C 368.172 235.259,368.000 235.604,368.000 236.200 M31.449 237.930 C 31.272 238.442,31.233 238.967,31.363 239.097 C 31.778 239.511,32.070 238.900,31.918 237.934 L 31.771 237.000 31.449 237.930 M368.400 240.576 C 368.400 241.139,368.580 241.600,368.800 241.600 C 369.020 241.600,369.200 241.251,369.200 240.824 C 369.200 240.397,369.020 239.936,368.800 239.800 C 368.573 239.660,368.400 239.996,368.400 240.576 M31.067 241.867 C 30.652 242.282,30.753 243.600,31.200 243.600 C 31.420 243.600,31.600 243.150,31.600 242.600 C 31.600 241.553,31.508 241.426,31.067 241.867 M368.800 245.000 C 368.800 245.550,368.980 246.000,369.200 246.000 C 369.420 246.000,369.600 245.550,369.600 245.000 C 369.600 244.450,369.420 244.000,369.200 244.000 C 368.980 244.000,368.800 244.450,368.800 245.000 M387.293 245.200 C 387.293 245.970,387.375 246.285,387.476 245.900 C 387.576 245.515,387.576 244.885,387.476 244.500 C 387.375 244.115,387.293 244.430,387.293 245.200 M30.667 246.267 C 30.248 246.685,30.355 248.400,30.800 248.400 C 31.020 248.400,31.200 247.860,31.200 247.200 C 31.200 245.957,31.119 245.815,30.667 246.267 M369.200 249.400 C 369.200 249.950,369.380 250.400,369.600 250.400 C 369.820 250.400,370.000 249.950,370.000 249.400 C 370.000 248.850,369.820 248.400,369.600 248.400 C 369.380 248.400,369.200 248.850,369.200 249.400 M30.000 251.600 C 30.000 252.040,30.180 252.400,30.400 252.400 C 30.620 252.400,30.800 252.040,30.800 251.600 C 30.800 251.160,30.620 250.800,30.400 250.800 C 30.180 250.800,30.000 251.160,30.000 251.600 M369.867 253.067 C 369.452 253.482,369.553 254.800,370.000 254.800 C 370.220 254.800,370.400 254.350,370.400 253.800 C 370.400 252.753,370.308 252.626,369.867 253.067 M29.600 256.200 C 29.600 256.750,29.780 257.200,30.000 257.200 C 30.220 257.200,30.400 256.750,30.400 256.200 C 30.400 255.650,30.220 255.200,30.000 255.200 C 29.780 255.200,29.600 255.650,29.600 256.200 M389.600 271.800 C 389.600 272.350,389.780 272.800,390.000 272.800 C 390.220 272.800,390.400 272.350,390.400 271.800 C 390.400 271.250,390.220 270.800,390.000 270.800 C 389.780 270.800,389.600 271.250,389.600 271.800 M9.600 272.000 C 9.600 272.440,9.780 272.800,10.000 272.800 C 10.220 272.800,10.400 272.440,10.400 272.000 C 10.400 271.560,10.220 271.200,10.000 271.200 C 9.780 271.200,9.600 271.560,9.600 272.000 M9.200 276.600 C 9.200 277.150,9.380 277.600,9.600 277.600 C 9.820 277.600,10.000 277.150,10.000 276.600 C 10.000 276.050,9.820 275.600,9.600 275.600 C 9.380 275.600,9.200 276.050,9.200 276.600 M390.000 276.376 C 390.000 276.803,390.180 277.264,390.400 277.400 C 390.627 277.540,390.800 277.204,390.800 276.624 C 390.800 276.061,390.620 275.600,390.400 275.600 C 390.180 275.600,390.000 275.949,390.000 276.376 M8.800 281.000 C 8.800 281.550,8.980 282.000,9.200 282.000 C 9.420 282.000,9.600 281.550,9.600 281.000 C 9.600 280.450,9.420 280.000,9.200 280.000 C 8.980 280.000,8.800 280.450,8.800 281.000 M390.400 280.776 C 390.400 281.203,390.580 281.664,390.800 281.800 C 391.027 281.940,391.200 281.604,391.200 281.024 C 391.200 280.461,391.020 280.000,390.800 280.000 C 390.580 280.000,390.400 280.349,390.400 280.776 M8.400 285.376 C 8.400 285.939,8.580 286.400,8.800 286.400 C 9.020 286.400,9.200 286.051,9.200 285.624 C 9.200 285.197,9.020 284.736,8.800 284.600 C 8.573 284.460,8.400 284.796,8.400 285.376 M390.934 285.027 C 390.802 285.372,390.898 285.858,391.147 286.107 C 391.484 286.444,391.600 286.284,391.600 285.480 C 391.600 284.277,391.301 284.073,390.934 285.027 M391.206 289.300 C 391.220 290.442,391.988 291.026,391.994 289.900 C 391.997 289.295,391.820 288.800,391.600 288.800 C 391.380 288.800,391.203 289.025,391.206 289.300 M8.000 290.024 C 8.000 290.477,8.180 290.736,8.400 290.600 C 8.620 290.464,8.800 290.093,8.800 289.776 C 8.800 289.459,8.620 289.200,8.400 289.200 C 8.180 289.200,8.000 289.571,8.000 290.024 M7.600 294.200 C 7.600 294.796,7.772 295.141,8.000 295.000 C 8.220 294.864,8.400 294.504,8.400 294.200 C 8.400 293.896,8.220 293.536,8.000 293.400 C 7.772 293.259,7.600 293.604,7.600 294.200 M391.734 293.827 C 391.602 294.172,391.698 294.658,391.947 294.907 C 392.284 295.244,392.400 295.084,392.400 294.280 C 392.400 293.077,392.101 292.873,391.734 293.827 M7.206 299.100 C 7.211 299.957,7.298 300.068,7.600 299.600 C 8.106 298.817,8.106 298.000,7.600 298.000 C 7.380 298.000,7.203 298.495,7.206 299.100 M392.006 298.300 C 392.024 299.177,392.788 299.759,392.794 298.900 C 392.797 298.405,392.620 298.000,392.400 298.000 C 392.180 298.000,392.003 298.135,392.006 298.300 M392.674 302.300 C 392.578 302.465,392.645 302.960,392.822 303.400 C 393.103 304.098,393.147 304.060,393.172 303.100 C 393.200 302.015,393.012 301.714,392.674 302.300 M6.800 303.376 C 6.800 304.602,7.028 304.701,7.316 303.600 C 7.431 303.161,7.362 302.700,7.162 302.577 C 6.963 302.454,6.800 302.813,6.800 303.376 M393.102 307.800 C 393.207 308.350,393.362 308.800,393.447 308.800 C 393.531 308.800,393.600 308.350,393.600 307.800 C 393.600 307.250,393.445 306.800,393.255 306.800 C 393.066 306.800,392.997 307.250,393.102 307.800 M6.406 308.100 C 6.411 308.828,6.486 308.885,6.800 308.400 C 7.301 307.624,7.301 307.200,6.800 307.200 C 6.580 307.200,6.403 307.605,6.406 308.100 M6.000 312.176 C 6.000 313.402,6.228 313.501,6.516 312.400 C 6.631 311.961,6.562 311.500,6.362 311.377 C 6.163 311.254,6.000 311.613,6.000 312.176 M376.000 321.024 C 376.000 321.587,376.163 321.946,376.362 321.823 C 376.562 321.700,376.631 321.239,376.516 320.800 C 376.228 319.699,376.000 319.798,376.000 321.024 M376.406 325.100 C 376.403 325.595,376.580 326.000,376.800 326.000 C 377.301 326.000,377.301 325.576,376.800 324.800 C 376.486 324.315,376.411 324.372,376.406 325.100 M23.100 327.410 C 22.994 327.965,23.063 328.515,23.254 328.633 C 23.444 328.751,23.600 328.297,23.600 327.624 C 23.600 326.139,23.363 326.037,23.100 327.410 M376.800 329.824 C 376.800 330.387,376.963 330.746,377.162 330.623 C 377.362 330.500,377.431 330.039,377.316 329.600 C 377.028 328.499,376.800 328.598,376.800 329.824 M377.206 334.100 C 377.203 334.705,377.380 335.200,377.600 335.200 C 378.106 335.200,378.106 334.383,377.600 333.600 C 377.298 333.132,377.211 333.243,377.206 334.100 M22.230 336.267 C 22.089 336.634,22.160 337.120,22.387 337.347 C 22.671 337.631,22.800 337.423,22.800 336.680 C 22.800 335.446,22.600 335.301,22.230 336.267 M377.600 338.976 C 377.600 339.539,377.780 340.000,378.000 340.000 C 378.220 340.000,378.400 339.651,378.400 339.224 C 378.400 338.797,378.220 338.336,378.000 338.200 C 377.773 338.060,377.600 338.396,377.600 338.976 M21.849 340.730 C 21.672 341.242,21.633 341.767,21.763 341.897 C 22.178 342.311,22.470 341.700,22.318 340.734 L 22.171 339.800 21.849 340.730 M378.000 343.176 C 378.000 343.629,378.180 344.000,378.400 344.000 C 378.620 344.000,378.800 343.741,378.800 343.424 C 378.800 343.107,378.620 342.736,378.400 342.600 C 378.180 342.464,378.000 342.723,378.000 343.176 M21.479 344.957 C 21.315 345.374,21.275 345.809,21.391 345.924 C 21.755 346.289,22.076 345.691,21.924 344.931 C 21.783 344.235,21.762 344.236,21.479 344.957 M396.893 347.600 C 396.893 348.370,396.975 348.685,397.076 348.300 C 397.176 347.915,397.176 347.285,397.076 346.900 C 396.975 346.515,396.893 346.830,396.893 347.600 M378.400 347.800 C 378.400 348.350,378.580 348.800,378.800 348.800 C 379.020 348.800,379.200 348.350,379.200 347.800 C 379.200 347.250,379.020 346.800,378.800 346.800 C 378.580 346.800,378.400 347.250,378.400 347.800 M21.067 349.067 C 20.652 349.482,20.753 350.800,21.200 350.800 C 21.420 350.800,21.600 350.350,21.600 349.800 C 21.600 348.753,21.508 348.626,21.067 349.067 M378.800 352.200 C 378.800 352.750,378.980 353.200,379.200 353.200 C 379.420 353.200,379.600 352.750,379.600 352.200 C 379.600 351.650,379.420 351.200,379.200 351.200 C 378.980 351.200,378.800 351.650,378.800 352.200 M20.667 353.467 C 20.252 353.882,20.353 355.200,20.800 355.200 C 21.020 355.200,21.200 354.750,21.200 354.200 C 21.200 353.153,21.108 353.026,20.667 353.467 M379.200 356.600 C 379.200 357.150,379.380 357.600,379.600 357.600 C 379.820 357.600,380.000 357.150,380.000 356.600 C 380.000 356.050,379.820 355.600,379.600 355.600 C 379.380 355.600,379.200 356.050,379.200 356.600 M20.000 359.000 C 20.000 359.550,20.180 360.000,20.400 360.000 C 20.620 360.000,20.800 359.550,20.800 359.000 C 20.800 358.450,20.620 358.000,20.400 358.000 C 20.180 358.000,20.000 358.450,20.000 359.000 M379.867 360.267 C 379.452 360.682,379.553 362.000,380.000 362.000 C 380.220 362.000,380.400 361.550,380.400 361.000 C 380.400 359.953,380.308 359.826,379.867 360.267 M19.600 363.200 C 19.600 363.640,19.780 364.000,20.000 364.000 C 20.220 364.000,20.400 363.640,20.400 363.200 C 20.400 362.760,20.220 362.400,20.000 362.400 C 19.780 362.400,19.600 362.760,19.600 363.200 M18.493 376.800 C 18.493 377.570,18.575 377.885,18.676 377.500 C 18.776 377.115,18.776 376.485,18.676 376.100 C 18.575 375.715,18.493 376.030,18.493 376.800 M18.400 385.447 C 18.400 385.667,18.664 386.196,18.987 386.624 C 19.310 387.051,19.575 387.220,19.575 387.000 C 19.575 386.780,19.310 386.251,18.987 385.824 C 18.664 385.396,18.400 385.227,18.400 385.447 M380.234 387.061 C 379.610 387.844,378.356 388.822,377.449 389.234 C 376.542 389.645,376.032 389.986,376.316 389.991 C 377.355 390.009,379.956 388.385,380.810 387.186 C 382.049 385.446,381.601 385.348,380.234 387.061 M22.000 389.400 C 22.550 389.714,23.270 389.971,23.600 389.970 C 23.930 389.969,23.594 389.706,22.854 389.384 C 21.151 388.645,20.694 388.653,22.000 389.400 M397.281 394.209 C 396.802 395.194,396.494 396.000,396.597 396.000 C 396.868 396.000,398.484 392.751,398.303 392.570 C 398.219 392.486,397.759 393.224,397.281 394.209 M4.400 397.902 C 4.400 398.122,4.670 398.526,5.000 398.800 C 5.335 399.078,5.600 399.121,5.600 398.898 C 5.600 398.678,5.330 398.274,5.000 398.000 C 4.665 397.722,4.400 397.679,4.400 397.902 M392.596 400.804 C 391.966 401.462,391.633 402.000,391.855 402.000 C 392.370 402.000,394.203 400.070,393.939 399.806 C 393.831 399.697,393.226 400.146,392.596 400.804 M6.400 400.338 C 6.400 400.875,7.977 402.157,8.273 401.860 C 8.421 401.712,8.157 401.233,7.688 400.796 C 6.765 399.936,6.400 399.806,6.400 400.338 M9.200 403.000 C 9.474 403.330,9.878 403.600,10.098 403.600 C 10.321 403.600,10.278 403.335,10.000 403.000 C 9.726 402.670,9.322 402.400,9.102 402.400 C 8.879 402.400,8.922 402.665,9.200 403.000 M12.000 404.597 C 12.000 404.868,15.249 406.484,15.430 406.303 C 15.514 406.219,14.776 405.759,13.791 405.281 C 12.806 404.802,12.000 404.494,12.000 404.597 M386.000 405.400 C 385.010 405.930,384.342 406.372,384.516 406.382 C 384.941 406.406,388.000 404.834,388.000 404.592 C 388.000 404.327,388.017 404.320,386.000 405.400 " stroke="none" fill="#c2c2c2" fill-rule="evenodd"></path><path id="path1" d="M193.000 0.435 C 188.701 0.748,181.890 1.773,181.177 2.214 C 180.980 2.336,180.320 2.500,179.709 2.579 C 177.351 2.885,166.035 6.904,161.824 8.933 C 137.595 20.602,118.793 44.035,113.789 68.800 C 113.633 69.570,113.404 70.371,113.280 70.580 C 113.156 70.789,113.010 71.329,112.956 71.780 C 112.902 72.231,112.764 73.186,112.648 73.901 C 112.532 74.617,112.357 75.697,112.260 76.301 C 111.513 80.942,111.219 87.271,111.210 98.900 L 111.200 112.400 78.933 112.400 C 46.434 112.400,42.911 112.533,40.304 113.859 C 39.701 114.165,39.161 114.378,39.104 114.331 C 39.047 114.285,37.913 114.826,36.583 115.535 C 28.319 119.939,23.661 127.552,22.961 137.800 C 22.871 139.120,22.721 141.010,22.627 142.000 C 22.171 146.852,21.983 148.708,21.827 149.905 C 21.733 150.623,21.253 155.843,20.759 161.505 C 20.265 167.167,19.757 171.845,19.630 171.899 C 19.504 171.954,19.462 172.989,19.537 174.199 C 19.615 175.448,19.506 176.400,19.286 176.400 C 19.064 176.400,18.984 177.160,19.099 178.181 C 19.209 179.161,19.164 180.286,18.998 180.681 C 18.832 181.077,18.733 182.161,18.778 183.090 C 18.823 184.020,18.725 184.998,18.560 185.264 C 18.396 185.531,18.305 186.705,18.360 187.874 C 18.414 189.043,18.310 190.000,18.129 189.999 C 17.948 189.999,17.862 190.989,17.937 192.199 C 18.012 193.410,17.908 194.400,17.704 194.400 C 17.500 194.400,17.416 195.388,17.517 196.600 C 17.626 197.923,17.539 198.800,17.299 198.800 C 17.061 198.800,16.980 199.526,17.099 200.581 C 17.209 201.561,17.164 202.686,16.998 203.081 C 16.832 203.477,16.733 204.561,16.778 205.490 C 16.823 206.420,16.723 207.400,16.557 207.669 C 16.391 207.938,16.300 209.004,16.355 210.038 C 16.410 211.073,16.289 212.022,16.085 212.147 C 15.882 212.273,15.800 213.258,15.903 214.336 C 16.010 215.449,15.915 216.405,15.684 216.548 C 15.456 216.689,15.370 217.498,15.488 218.381 C 15.605 219.250,15.570 220.285,15.411 220.681 C 15.253 221.076,15.066 222.300,14.996 223.400 C 14.820 226.193,14.557 229.382,14.272 232.200 C 14.138 233.520,13.948 235.500,13.850 236.600 C 13.668 238.630,13.423 241.225,13.036 245.200 C 12.919 246.410,12.723 248.480,12.602 249.800 C 12.481 251.120,12.315 252.740,12.234 253.400 C 12.152 254.060,11.668 259.190,11.157 264.800 C 10.646 270.410,10.132 275.045,10.014 275.099 C 9.896 275.154,9.862 276.189,9.937 277.399 C 10.012 278.610,9.922 279.600,9.737 279.599 C 9.552 279.599,9.463 280.611,9.540 281.848 C 9.620 283.132,9.524 284.000,9.316 283.872 C 9.106 283.742,9.025 284.654,9.124 286.023 C 9.223 287.382,9.133 288.400,8.915 288.400 C 8.698 288.400,8.613 289.346,8.717 290.600 C 8.817 291.810,8.742 292.800,8.550 292.799 C 8.357 292.799,8.262 293.789,8.337 294.999 C 8.412 296.210,8.308 297.200,8.104 297.200 C 7.900 297.200,7.816 298.188,7.917 299.400 C 8.021 300.660,7.936 301.600,7.717 301.600 C 7.499 301.600,7.411 302.524,7.512 303.748 C 7.614 304.975,7.516 306.005,7.283 306.149 C 7.056 306.289,6.970 307.099,7.088 307.981 C 7.205 308.850,7.165 309.885,7.000 310.281 C 6.835 310.676,6.735 311.837,6.777 312.859 C 6.820 313.882,6.680 314.827,6.466 314.959 C 6.251 315.092,6.172 315.912,6.288 316.781 C 6.405 317.650,6.364 318.685,6.197 319.081 C 6.031 319.476,5.846 320.700,5.787 321.800 C 5.684 323.719,5.530 325.624,5.095 330.400 C 4.985 331.610,4.798 333.680,4.679 335.000 C 4.451 337.526,4.229 339.953,3.893 343.600 C 3.781 344.810,3.592 346.880,3.473 348.200 C 3.354 349.520,3.145 351.680,3.008 353.000 C 2.871 354.320,2.689 356.210,2.605 357.200 C 2.379 359.861,2.036 363.211,1.827 364.800 C 1.090 370.414,0.345 381.655,0.503 384.800 C 1.073 396.147,10.553 406.085,22.273 407.619 C 28.131 408.386,378.559 407.931,381.000 407.153 C 391.166 403.914,398.394 395.632,399.602 385.841 C 399.883 383.569,398.872 370.523,397.013 352.400 C 396.562 348.006,396.240 344.645,395.728 339.000 C 395.609 337.680,395.419 335.610,395.307 334.400 C 395.196 333.190,395.021 331.255,394.919 330.100 C 394.817 328.945,394.644 327.055,394.535 325.900 C 394.017 320.406,393.892 318.868,393.829 317.191 C 393.791 316.196,393.621 315.157,393.450 314.882 C 393.280 314.606,393.177 313.620,393.222 312.690 C 393.267 311.761,393.168 310.677,393.002 310.281 C 392.836 309.886,392.791 308.761,392.901 307.781 C 393.016 306.760,392.936 306.000,392.714 306.000 C 392.494 306.000,392.385 305.048,392.463 303.799 C 392.538 302.589,392.443 301.599,392.250 301.599 C 392.058 301.600,391.983 300.610,392.083 299.400 C 392.184 298.188,392.100 297.200,391.896 297.200 C 391.692 297.200,391.588 296.210,391.663 294.999 C 391.738 293.789,391.648 292.799,391.463 292.799 C 391.278 292.800,391.188 291.810,391.263 290.599 C 391.338 289.389,391.248 288.399,391.063 288.399 C 390.878 288.400,390.788 287.410,390.863 286.199 C 390.938 284.989,390.843 283.999,390.652 283.999 C 390.460 284.000,390.382 282.920,390.477 281.600 C 390.575 280.250,390.487 279.200,390.276 279.200 C 390.066 279.200,389.981 278.236,390.082 277.011 C 390.182 275.807,390.149 274.772,390.009 274.711 C 389.869 274.650,389.252 269.110,388.637 262.400 C 388.022 255.690,387.444 249.480,387.352 248.600 C 387.260 247.720,387.095 246.100,386.985 245.000 C 386.874 243.900,386.680 242.010,386.552 240.800 C 386.425 239.590,386.242 237.700,386.146 236.600 C 385.875 233.499,385.552 230.014,385.311 227.600 C 385.190 226.390,385.012 224.500,384.914 223.400 C 384.817 222.300,384.637 220.320,384.515 219.000 C 384.392 217.680,384.250 215.700,384.199 214.600 C 384.147 213.500,383.969 212.276,383.803 211.881 C 383.636 211.485,383.595 210.450,383.712 209.581 C 383.830 208.698,383.744 207.889,383.516 207.748 C 383.285 207.605,383.190 206.649,383.297 205.536 C 383.400 204.458,383.318 203.473,383.115 203.347 C 382.911 203.222,382.790 202.273,382.845 201.238 C 382.900 200.204,382.809 199.138,382.643 198.869 C 382.477 198.600,382.388 197.613,382.446 196.674 C 382.503 195.735,382.413 194.745,382.246 194.474 C 382.078 194.203,381.988 193.213,382.046 192.274 C 382.103 191.335,382.013 190.345,381.846 190.074 C 381.678 189.803,381.577 188.820,381.622 187.890 C 381.667 186.961,381.572 185.887,381.411 185.505 C 381.250 185.123,381.183 183.998,381.262 183.005 C 381.341 182.012,381.247 181.200,381.053 181.200 C 380.860 181.200,380.783 180.210,380.883 179.000 C 380.987 177.746,380.902 176.800,380.685 176.800 C 380.467 176.800,380.377 175.782,380.476 174.423 C 380.579 172.998,380.497 172.140,380.272 172.279 C 380.046 172.419,379.966 171.540,380.072 170.079 C 380.168 168.741,380.138 167.715,380.004 167.797 C 379.870 167.880,379.255 162.425,378.637 155.674 C 378.019 148.923,377.461 142.860,377.397 142.200 C 377.333 141.540,377.153 139.560,376.996 137.800 C 376.579 133.093,376.566 132.993,376.320 132.580 C 376.196 132.371,375.961 131.570,375.799 130.800 C 374.468 124.486,369.239 118.415,362.200 115.012 C 356.759 112.382,357.044 112.400,321.113 112.400 L 288.892 112.400 288.667 96.100 C 288.543 87.135,288.251 78.720,288.016 77.400 C 287.782 76.080,287.506 74.460,287.403 73.800 C 287.300 73.140,287.040 71.995,286.823 71.255 C 286.607 70.515,286.452 69.795,286.479 69.655 C 286.505 69.515,286.426 69.130,286.303 68.800 C 286.180 68.470,285.603 66.418,285.021 64.241 C 277.143 34.740,252.861 11.346,221.200 2.754 C 220.210 2.485,219.220 2.216,219.000 2.156 C 216.916 1.590,210.794 0.741,206.400 0.409 C 200.472 -0.038,199.460 -0.036,193.000 0.435 M206.400 16.636 C 238.927 18.848,266.488 44.688,271.636 77.800 C 272.384 82.611,272.409 83.111,272.652 98.300 L 272.877 112.400 200.238 112.400 L 127.600 112.400 127.600 98.842 C 127.600 83.058,128.606 71.388,130.011 70.874 C 130.200 70.805,130.262 70.506,130.149 70.211 C 130.035 69.915,130.566 67.812,131.328 65.537 C 136.449 50.239,146.043 37.829,160.155 28.246 C 165.802 24.412,175.353 19.953,176.457 20.635 C 176.718 20.797,176.817 20.751,176.681 20.531 C 176.405 20.084,182.818 18.133,186.550 17.528 C 190.606 16.871,191.263 16.795,194.783 16.577 C 196.644 16.462,198.264 16.267,198.383 16.145 C 198.502 16.022,199.860 16.049,201.400 16.204 C 202.940 16.360,205.190 16.554,206.400 16.636 M111.211 143.301 L 111.180 156.802 109.464 158.383 C 103.672 163.722,103.493 173.252,109.072 179.245 C 110.938 181.251,114.944 183.599,116.500 183.600 C 116.885 183.600,117.200 183.735,117.200 183.900 C 117.200 184.065,118.353 184.200,119.762 184.200 C 121.171 184.200,122.240 184.065,122.138 183.900 C 122.036 183.735,122.368 183.600,122.876 183.600 C 124.741 183.599,128.557 181.378,130.674 179.062 C 136.196 173.019,135.968 164.237,130.138 158.503 L 127.600 156.007 127.600 143.003 L 127.600 130.000 200.000 130.000 L 272.400 130.000 272.400 143.571 L 272.400 157.142 271.473 157.871 C 269.748 159.229,267.690 162.337,267.168 164.373 C 266.883 165.488,266.545 166.400,266.418 166.400 C 266.291 166.400,266.301 167.885,266.441 169.700 C 266.580 171.515,266.627 173.120,266.544 173.266 C 266.462 173.412,266.531 173.592,266.698 173.666 C 266.864 173.740,267.521 174.843,268.158 176.117 C 269.880 179.563,275.007 183.581,277.700 183.596 C 278.085 183.598,278.400 183.735,278.400 183.900 C 278.400 184.065,279.660 184.200,281.200 184.200 C 282.740 184.200,284.000 184.065,284.000 183.900 C 284.000 183.735,284.315 183.596,284.700 183.591 C 285.847 183.577,288.836 182.067,290.633 180.594 C 297.934 174.612,297.772 162.996,290.311 157.383 L 288.800 156.247 288.800 143.114 L 288.800 129.982 321.729 130.091 L 354.659 130.200 356.281 131.274 C 358.337 132.635,359.744 135.375,359.531 137.608 C 359.448 138.480,359.479 139.240,359.601 139.297 C 359.723 139.353,360.332 144.890,360.955 151.600 C 361.578 158.310,362.149 164.340,362.223 165.000 C 362.297 165.660,362.463 167.370,362.590 168.800 C 362.718 170.230,362.919 172.390,363.036 173.600 C 363.423 177.575,363.668 180.170,363.850 182.200 C 363.948 183.300,364.137 185.280,364.268 186.600 C 364.500 188.921,364.660 190.636,365.100 195.499 C 365.215 196.765,365.340 198.707,365.378 199.815 C 365.416 200.923,365.585 202.053,365.753 202.325 C 365.922 202.597,366.012 203.587,365.954 204.526 C 365.897 205.465,365.987 206.455,366.154 206.726 C 366.322 206.997,366.423 207.980,366.378 208.910 C 366.333 209.839,366.432 210.924,366.598 211.319 C 366.764 211.715,366.805 212.750,366.688 213.619 C 366.572 214.488,366.651 215.308,366.866 215.441 C 367.080 215.573,367.210 216.527,367.155 217.562 C 367.100 218.596,367.191 219.662,367.357 219.931 C 367.523 220.200,367.623 221.180,367.578 222.110 C 367.533 223.039,367.632 224.123,367.798 224.519 C 367.964 224.914,368.009 226.039,367.899 227.019 C 367.780 228.074,367.861 228.800,368.099 228.800 C 368.339 228.800,368.426 229.677,368.317 231.000 C 368.216 232.212,368.300 233.200,368.504 233.200 C 368.708 233.200,368.812 234.190,368.737 235.401 C 368.662 236.611,368.752 237.601,368.937 237.601 C 369.122 237.600,369.212 238.590,369.137 239.801 C 369.062 241.011,369.152 242.001,369.337 242.001 C 369.522 242.000,369.612 242.990,369.537 244.201 C 369.462 245.411,369.552 246.401,369.737 246.401 C 369.922 246.400,370.012 247.390,369.937 248.601 C 369.862 249.811,369.896 250.846,370.014 250.901 C 370.131 250.955,370.648 255.500,371.162 261.000 C 371.676 266.500,372.157 271.540,372.232 272.200 C 372.306 272.860,372.474 274.570,372.604 276.000 C 372.922 279.495,373.207 282.546,373.465 285.200 C 373.725 287.869,373.979 290.602,374.265 293.800 C 374.383 295.120,374.572 297.145,374.686 298.299 C 375.111 302.627,375.311 305.058,375.401 307.000 C 375.453 308.100,375.631 309.324,375.797 309.719 C 375.964 310.115,376.005 311.150,375.888 312.019 C 375.772 312.888,375.851 313.708,376.066 313.841 C 376.280 313.973,376.410 314.927,376.355 315.962 C 376.300 316.996,376.391 318.062,376.557 318.331 C 376.723 318.600,376.823 319.580,376.778 320.510 C 376.733 321.439,376.832 322.524,376.998 322.919 C 377.164 323.315,377.205 324.350,377.088 325.219 C 376.972 326.088,377.051 326.908,377.266 327.041 C 377.480 327.173,377.620 328.118,377.577 329.141 C 377.535 330.163,377.635 331.323,377.800 331.719 C 377.965 332.114,378.009 333.239,377.899 334.219 C 377.784 335.240,377.864 336.000,378.086 336.000 C 378.306 336.000,378.415 336.952,378.337 338.201 C 378.262 339.411,378.357 340.401,378.550 340.401 C 378.742 340.400,378.817 341.390,378.717 342.600 C 378.616 343.812,378.700 344.800,378.904 344.800 C 379.108 344.800,379.212 345.790,379.137 347.001 C 379.062 348.211,379.152 349.201,379.337 349.201 C 379.522 349.200,379.612 350.190,379.537 351.401 C 379.462 352.611,379.501 353.601,379.625 353.601 C 379.749 353.600,380.163 357.245,380.546 361.700 C 381.504 372.842,381.567 373.528,381.839 375.800 C 382.690 382.911,382.695 383.972,381.885 385.672 C 381.204 387.103,379.139 389.228,377.726 389.952 C 376.273 390.697,23.508 390.582,22.080 389.836 C 20.563 389.043,18.946 387.249,18.252 385.586 C 17.673 384.201,19.278 360.804,19.972 360.501 C 20.098 360.446,20.138 359.411,20.063 358.201 C 19.985 356.952,20.094 356.000,20.314 356.000 C 20.536 356.000,20.616 355.240,20.501 354.219 C 20.391 353.239,20.435 352.114,20.600 351.719 C 20.765 351.323,20.865 350.163,20.823 349.141 C 20.780 348.118,20.920 347.173,21.134 347.041 C 21.349 346.908,21.428 346.088,21.312 345.219 C 21.195 344.350,21.234 343.315,21.398 342.919 C 21.563 342.524,21.662 341.255,21.619 340.100 C 21.577 338.945,21.690 338.000,21.871 338.001 C 22.052 338.001,22.138 337.011,22.063 335.801 C 21.988 334.590,22.092 333.600,22.296 333.600 C 22.500 333.600,22.584 332.612,22.483 331.400 C 22.383 330.190,22.460 329.200,22.653 329.200 C 22.847 329.200,22.941 328.388,22.862 327.395 C 22.783 326.402,22.850 325.277,23.011 324.895 C 23.172 324.513,23.267 323.439,23.222 322.510 C 23.177 321.580,23.266 320.616,23.420 320.368 C 23.573 320.120,23.751 318.990,23.816 317.858 C 23.880 316.726,24.016 314.900,24.118 313.800 C 24.221 312.700,24.402 310.720,24.521 309.400 C 24.640 308.080,24.823 306.100,24.928 305.000 C 25.033 303.900,25.214 301.920,25.330 300.600 C 25.694 296.447,26.270 290.414,27.008 283.000 C 27.162 281.460,27.336 279.660,27.395 279.000 C 28.961 261.609,29.796 253.378,30.005 253.289 C 30.147 253.228,30.182 252.193,30.082 250.989 C 29.983 249.785,30.060 248.800,30.253 248.800 C 30.447 248.800,30.541 247.988,30.462 246.995 C 30.383 246.002,30.450 244.877,30.611 244.495 C 30.772 244.113,30.867 243.039,30.822 242.110 C 30.777 241.180,30.877 240.200,31.043 239.931 C 31.209 239.662,31.300 238.596,31.245 237.562 C 31.190 236.527,31.308 235.581,31.507 235.458 C 31.706 235.335,31.786 234.236,31.685 233.017 C 31.584 231.798,31.658 230.800,31.850 230.801 C 32.043 230.801,32.138 229.811,32.063 228.601 C 31.988 227.390,32.079 226.400,32.266 226.400 C 32.453 226.400,32.540 225.573,32.460 224.563 C 32.379 223.553,32.490 222.550,32.705 222.335 C 32.920 222.120,33.007 221.155,32.898 220.191 C 32.789 219.226,32.830 218.114,32.989 217.719 C 33.147 217.323,33.328 216.190,33.389 215.200 C 33.501 213.407,33.715 210.868,34.123 206.499 C 34.241 205.235,34.420 203.300,34.521 202.200 C 34.622 201.100,34.798 199.210,34.912 198.000 C 35.026 196.790,35.208 194.720,35.316 193.400 C 35.424 192.080,35.623 189.920,35.759 188.600 C 35.894 187.280,36.084 185.300,36.181 184.200 C 36.277 183.100,36.449 181.300,36.563 180.200 C 36.774 178.169,37.137 174.542,37.384 172.000 C 37.459 171.230,38.025 165.077,38.641 158.326 C 39.257 151.575,39.870 146.120,40.004 146.203 C 40.138 146.285,40.170 145.284,40.076 143.977 C 39.977 142.618,40.067 141.600,40.285 141.600 C 40.500 141.600,40.590 140.684,40.491 139.497 C 40.248 136.559,40.989 134.195,42.743 132.315 C 45.296 129.578,44.369 129.643,79.721 129.726 L 111.241 129.800 111.211 143.301 " stroke="none" fill="#040404" fill-rule="evenodd"></path><path id="path2" d="M195.300 0.276 C 195.685 0.376,196.315 0.376,196.700 0.276 C 197.085 0.175,196.770 0.093,196.000 0.093 C 195.230 0.093,194.915 0.175,195.300 0.276 M175.058 3.452 C 173.990 3.780,173.187 4.120,173.275 4.208 C 173.362 4.296,174.506 4.031,175.817 3.620 C 177.128 3.209,177.930 2.869,177.600 2.864 C 177.270 2.860,176.126 3.124,175.058 3.452 M225.568 4.028 C 226.760 4.451,227.821 4.712,227.925 4.608 C 228.029 4.504,227.864 4.340,227.557 4.245 C 227.251 4.149,226.388 3.875,225.640 3.635 C 223.331 2.896,223.273 3.213,225.568 4.028 M199.100 16.282 C 199.595 16.378,200.405 16.378,200.900 16.282 C 201.395 16.187,200.990 16.109,200.000 16.109 C 199.010 16.109,198.605 16.187,199.100 16.282 M259.886 23.619 C 261.033 24.797,262.056 25.677,262.160 25.573 C 262.264 25.469,261.325 24.505,260.075 23.430 L 257.800 21.476 259.886 23.619 M139.447 23.829 C 138.372 24.818,137.573 25.706,137.671 25.804 C 137.768 25.902,138.731 25.086,139.809 23.991 C 142.244 21.519,142.051 21.433,139.447 23.829 M165.999 24.649 L 165.000 25.233 166.000 24.967 C 167.114 24.670,167.414 24.481,167.166 24.233 C 167.074 24.141,166.549 24.328,165.999 24.649 M235.401 25.602 C 235.669 26.036,238.000 27.334,238.000 27.050 C 238.000 26.956,237.359 26.501,236.576 26.039 C 235.793 25.577,235.264 25.380,235.401 25.602 M162.500 26.626 C 161.565 27.187,160.800 27.740,160.800 27.855 C 160.800 28.071,163.499 26.538,164.180 25.936 C 164.867 25.328,164.227 25.591,162.500 26.626 M136.376 26.900 C 135.473 27.682,133.429 30.000,133.642 30.000 C 133.747 30.000,134.628 29.190,135.600 28.200 C 137.238 26.531,137.705 25.748,136.376 26.900 M263.200 26.635 C 263.200 26.852,264.137 27.923,265.282 29.015 L 267.364 31.000 265.620 29.000 C 264.661 27.900,263.724 26.829,263.538 26.620 C 263.326 26.381,263.200 26.387,263.200 26.635 M247.600 34.155 C 247.600 34.241,249.035 35.707,250.788 37.413 C 252.541 39.119,253.881 40.669,253.764 40.858 C 253.648 41.046,253.875 41.200,254.268 41.200 C 254.743 41.200,253.778 39.989,251.400 37.600 C 247.945 34.129,247.600 33.816,247.600 34.155 M148.612 37.588 C 146.869 39.341,145.523 40.826,145.621 40.888 C 145.720 40.950,147.253 39.515,149.030 37.700 C 150.806 35.885,152.152 34.400,152.021 34.400 C 151.889 34.400,150.355 35.835,148.612 37.588 M264.000 55.200 C 264.666 56.520,265.302 57.600,265.412 57.600 C 265.522 57.600,265.066 56.520,264.400 55.200 C 263.734 53.880,263.098 52.800,262.988 52.800 C 262.878 52.800,263.334 53.880,264.000 55.200 M135.387 55.625 C 134.249 57.872,133.417 59.916,133.795 59.538 C 134.175 59.159,136.792 53.600,136.591 53.600 C 136.493 53.600,135.952 54.511,135.387 55.625 M114.457 64.473 C 113.797 66.543,112.871 70.862,113.147 70.587 C 113.449 70.284,115.187 63.454,115.008 63.275 C 114.937 63.204,114.689 63.743,114.457 64.473 M284.900 63.700 C 285.002 63.975,285.325 65.190,285.616 66.400 C 285.908 67.610,286.279 68.757,286.442 68.949 C 286.745 69.307,286.467 67.903,285.638 64.900 C 285.380 63.965,285.067 63.200,284.942 63.200 C 284.817 63.200,284.798 63.425,284.900 63.700 M286.644 70.600 C 286.973 72.071,287.202 72.390,287.194 71.367 C 287.191 70.945,287.005 70.330,286.782 70.000 C 286.485 69.562,286.448 69.724,286.644 70.600 M272.578 99.800 C 272.579 106.840,272.633 109.664,272.699 106.075 C 272.766 102.486,272.766 96.726,272.699 93.275 C 272.633 89.824,272.578 92.760,272.578 99.800 M36.700 115.029 C 35.149 115.870,35.325 116.161,36.900 115.359 C 38.408 114.593,38.675 114.394,38.167 114.416 C 37.965 114.425,37.305 114.701,36.700 115.029 M361.633 114.549 C 362.045 114.917,364.400 116.000,364.400 115.821 C 364.400 115.590,362.182 114.400,361.753 114.400 C 361.596 114.400,361.542 114.467,361.633 114.549 M375.412 129.450 C 375.716 130.302,375.973 131.304,375.982 131.676 C 375.992 132.048,376.164 132.454,376.364 132.578 C 376.827 132.864,375.775 128.815,375.250 128.290 C 375.036 128.076,375.108 128.597,375.412 129.450 M59.200 129.893 C 88.949 130.169,111.506 130.172,111.338 129.900 C 111.236 129.735,96.898 129.642,79.476 129.694 C 62.054 129.745,52.930 129.835,59.200 129.893 M23.639 131.260 C 23.398 131.953,23.221 132.988,23.246 133.560 C 23.284 134.416,23.342 134.352,23.577 133.200 C 23.733 132.430,23.995 131.395,24.158 130.900 C 24.321 130.405,24.369 130.000,24.266 130.000 C 24.163 130.000,23.881 130.567,23.639 131.260 M40.400 137.200 C 40.400 137.640,40.580 138.000,40.800 138.000 C 41.020 138.000,41.200 137.640,41.200 137.200 C 41.200 136.760,41.020 136.400,40.800 136.400 C 40.580 136.400,40.400 136.760,40.400 137.200 M359.200 139.800 C 359.200 140.130,359.380 140.400,359.600 140.400 C 359.820 140.400,360.000 140.130,360.000 139.800 C 360.000 139.470,359.820 139.200,359.600 139.200 C 359.380 139.200,359.200 139.470,359.200 139.800 M359.600 144.400 C 359.600 145.147,359.707 145.253,360.080 144.880 C 360.453 144.507,360.453 144.293,360.080 143.920 C 359.707 143.547,359.600 143.653,359.600 144.400 M19.600 167.000 C 19.600 167.596,19.772 167.941,20.000 167.800 C 20.220 167.664,20.400 167.304,20.400 167.000 C 20.400 166.696,20.220 166.336,20.000 166.200 C 19.772 166.059,19.600 166.404,19.600 167.000 M104.652 167.300 C 104.337 168.477,104.382 170.411,104.746 171.335 C 104.907 171.745,105.035 170.815,105.035 169.235 C 105.035 166.124,105.006 165.978,104.652 167.300 M134.577 169.267 C 134.564 170.871,134.682 171.776,134.849 171.351 C 135.219 170.409,135.232 168.021,134.872 167.116 C 134.722 166.740,134.590 167.708,134.577 169.267 M379.892 166.642 C 379.731 166.802,379.600 167.209,379.600 167.547 C 379.600 167.997,379.718 168.042,380.045 167.715 C 380.290 167.470,380.421 167.063,380.337 166.810 C 380.252 166.557,380.052 166.481,379.892 166.642 M296.114 169.000 C 296.117 170.100,296.195 170.503,296.287 169.895 C 296.379 169.286,296.377 168.386,296.282 167.895 C 296.187 167.403,296.111 167.900,296.114 169.000 M294.600 175.600 C 294.259 176.260,294.069 176.800,294.179 176.800 C 294.289 176.800,294.659 176.260,295.000 175.600 C 295.341 174.940,295.531 174.400,295.421 174.400 C 295.311 174.400,294.941 174.940,294.600 175.600 M380.400 176.200 C 380.400 176.530,380.580 176.800,380.800 176.800 C 381.020 176.800,381.200 176.530,381.200 176.200 C 381.200 175.870,381.020 175.600,380.800 175.600 C 380.580 175.600,380.400 175.870,380.400 176.200 M363.301 177.800 C 363.305 178.680,363.387 178.993,363.483 178.495 C 363.579 177.998,363.575 177.278,363.475 176.895 C 363.375 176.513,363.296 176.920,363.301 177.800 M109.200 179.800 C 109.946 180.570,110.647 181.200,110.757 181.200 C 110.867 181.200,110.346 180.570,109.600 179.800 C 108.854 179.030,108.153 178.400,108.043 178.400 C 107.933 178.400,108.454 179.030,109.200 179.800 M130.175 179.700 L 129.000 181.000 130.300 179.825 C 131.015 179.179,131.600 178.594,131.600 178.525 C 131.600 178.216,131.270 178.488,130.175 179.700 M363.693 182.000 C 363.693 182.770,363.775 183.085,363.876 182.700 C 363.976 182.315,363.976 181.685,363.876 181.300 C 363.775 180.915,363.693 181.230,363.693 182.000 M363.882 185.800 C 364.009 186.900,364.177 187.875,364.256 187.967 C 364.555 188.314,364.328 185.364,363.997 184.600 C 363.774 184.085,363.733 184.513,363.882 185.800 M381.200 184.953 C 381.200 185.283,381.380 185.664,381.600 185.800 C 381.820 185.936,382.000 185.777,382.000 185.447 C 382.000 185.117,381.820 184.736,381.600 184.600 C 381.380 184.464,381.200 184.623,381.200 184.953 M35.693 188.800 C 35.693 189.570,35.775 189.885,35.876 189.500 C 35.976 189.115,35.976 188.485,35.876 188.100 C 35.775 187.715,35.693 188.030,35.693 188.800 M364.238 189.800 C 364.570 191.784,364.802 192.104,364.794 190.567 C 364.791 189.925,364.604 189.130,364.379 188.800 C 364.086 188.370,364.046 188.654,364.238 189.800 M17.600 189.400 C 17.600 189.730,17.780 190.000,18.000 190.000 C 18.220 190.000,18.400 189.730,18.400 189.400 C 18.400 189.070,18.220 188.800,18.000 188.800 C 17.780 188.800,17.600 189.070,17.600 189.400 M381.600 189.353 C 381.600 189.683,381.780 190.064,382.000 190.200 C 382.220 190.336,382.400 190.177,382.400 189.847 C 382.400 189.517,382.220 189.136,382.000 189.000 C 381.780 188.864,381.600 189.023,381.600 189.353 M35.456 191.284 C 35.321 191.788,35.228 192.650,35.249 193.200 C 35.272 193.789,35.431 193.471,35.636 192.425 C 36.003 190.552,35.873 189.727,35.456 191.284 M17.479 193.357 C 17.315 193.774,17.275 194.209,17.391 194.324 C 17.755 194.689,18.076 194.091,17.924 193.331 C 17.783 192.635,17.762 192.636,17.479 193.357 M364.638 194.200 C 364.970 196.184,365.202 196.504,365.194 194.967 C 365.191 194.325,365.004 193.530,364.779 193.200 C 364.486 192.770,364.446 193.054,364.638 194.200 M382.000 193.753 C 382.000 194.083,382.180 194.464,382.400 194.600 C 382.620 194.736,382.800 194.577,382.800 194.247 C 382.800 193.917,382.620 193.536,382.400 193.400 C 382.180 193.264,382.000 193.423,382.000 193.753 M35.049 195.815 C 34.912 196.173,34.818 196.856,34.841 197.333 C 34.867 197.881,35.003 197.686,35.210 196.803 C 35.560 195.316,35.465 194.733,35.049 195.815 M17.079 197.757 C 16.915 198.174,16.875 198.609,16.991 198.724 C 17.355 199.089,17.676 198.491,17.524 197.731 C 17.383 197.035,17.362 197.036,17.079 197.757 M364.846 197.600 C 364.865 197.930,365.024 198.650,365.200 199.200 L 365.520 200.200 365.554 199.200 C 365.573 198.650,365.413 197.930,365.200 197.600 C 364.855 197.067,364.816 197.067,364.846 197.600 M382.406 197.876 C 382.403 198.358,382.580 198.864,382.800 199.000 C 383.309 199.315,383.309 198.388,382.800 197.600 C 382.485 197.112,382.411 197.164,382.406 197.876 M34.649 200.215 C 34.512 200.573,34.418 201.256,34.441 201.733 C 34.467 202.281,34.603 202.086,34.810 201.203 C 35.160 199.716,35.065 199.133,34.649 200.215 M16.688 202.133 C 16.242 203.266,16.315 203.845,16.838 203.322 C 17.078 203.082,17.208 202.551,17.126 202.142 C 16.982 201.426,16.966 201.426,16.688 202.133 M382.806 202.276 C 382.803 202.758,382.980 203.264,383.200 203.400 C 383.709 203.715,383.709 202.788,383.200 202.000 C 382.885 201.512,382.811 201.564,382.806 202.276 M365.228 202.276 C 365.318 203.315,365.944 204.196,365.972 203.324 C 365.987 202.842,365.820 202.336,365.600 202.200 C 365.380 202.064,365.213 202.098,365.228 202.276 M34.273 204.553 C 34.123 204.945,34.011 205.566,34.025 205.933 C 34.042 206.375,34.181 206.274,34.437 205.634 C 34.649 205.103,34.761 204.482,34.685 204.254 C 34.609 204.027,34.424 204.161,34.273 204.553 M16.288 206.533 C 15.842 207.666,15.915 208.245,16.438 207.722 C 16.678 207.482,16.808 206.951,16.726 206.542 C 16.582 205.826,16.566 205.826,16.288 206.533 M383.228 206.676 C 383.213 207.158,383.380 207.664,383.600 207.800 C 384.073 208.092,384.073 207.701,383.600 206.600 C 383.269 205.829,383.255 205.831,383.228 206.676 M365.606 206.876 C 365.618 207.881,366.387 208.708,366.394 207.724 C 366.397 207.242,366.220 206.736,366.000 206.600 C 365.780 206.464,365.603 206.588,365.606 206.876 M33.873 208.953 C 33.723 209.345,33.611 209.966,33.625 210.333 C 33.642 210.775,33.781 210.674,34.037 210.034 C 34.249 209.503,34.361 208.882,34.285 208.654 C 34.209 208.427,34.024 208.561,33.873 208.953 M15.862 210.947 C 15.697 211.578,15.656 212.189,15.771 212.304 C 16.093 212.627,16.487 211.338,16.315 210.523 C 16.203 209.990,16.084 210.101,15.862 210.947 M383.600 210.910 C 383.600 211.483,383.787 212.068,384.016 212.210 C 384.289 212.379,384.338 212.077,384.160 211.334 C 383.792 209.801,383.600 209.656,383.600 210.910 M366.006 211.276 C 366.018 212.281,366.787 213.108,366.794 212.124 C 366.797 211.642,366.620 211.136,366.400 211.000 C 366.180 210.864,366.003 210.988,366.006 211.276 M33.473 213.353 C 33.323 213.745,33.211 214.366,33.225 214.733 C 33.242 215.175,33.381 215.074,33.637 214.434 C 33.849 213.903,33.961 213.282,33.885 213.054 C 33.809 212.827,33.624 212.961,33.473 213.353 M384.046 215.200 C 384.027 215.750,384.187 216.470,384.400 216.800 C 384.894 217.564,384.894 216.742,384.400 215.200 L 384.080 214.200 384.046 215.200 M15.488 215.333 C 15.042 216.466,15.115 217.045,15.638 216.522 C 15.878 216.282,16.008 215.751,15.926 215.342 C 15.782 214.626,15.766 214.626,15.488 215.333 M366.400 215.753 C 366.400 216.083,366.580 216.464,366.800 216.600 C 367.020 216.736,367.200 216.577,367.200 216.247 C 367.200 215.917,367.020 215.536,366.800 215.400 C 366.580 215.264,366.400 215.423,366.400 215.753 M33.092 217.442 C 32.931 217.602,32.805 218.108,32.812 218.567 C 32.823 219.336,32.856 219.345,33.240 218.685 C 33.688 217.916,33.573 216.960,33.092 217.442 M384.406 219.433 C 384.409 220.075,384.596 220.870,384.821 221.200 C 385.114 221.630,385.154 221.346,384.962 220.200 C 384.630 218.216,384.398 217.896,384.406 219.433 M15.254 219.267 C 15.225 219.634,15.084 220.264,14.941 220.667 C 14.741 221.233,14.795 221.296,15.175 220.946 C 15.446 220.697,15.587 220.067,15.488 219.546 C 15.390 219.026,15.284 218.900,15.254 219.267 M366.806 220.076 C 366.818 221.081,367.587 221.908,367.594 220.924 C 367.597 220.442,367.420 219.936,367.200 219.800 C 366.980 219.664,366.803 219.788,366.806 220.076 M14.854 223.467 C 14.825 223.944,14.696 224.664,14.570 225.067 C 14.352 225.761,14.364 225.762,14.796 225.088 C 15.047 224.697,15.175 223.977,15.081 223.488 C 14.909 222.601,14.909 222.601,14.854 223.467 M384.806 223.833 C 384.809 224.475,384.996 225.270,385.221 225.600 C 385.514 226.030,385.554 225.746,385.362 224.600 C 385.030 222.616,384.798 222.296,384.806 223.833 M367.200 224.553 C 367.200 224.883,367.380 225.264,367.600 225.400 C 367.820 225.536,368.000 225.377,368.000 225.047 C 368.000 224.717,367.820 224.336,367.600 224.200 C 367.380 224.064,367.200 224.223,367.200 224.553 M32.006 227.300 C 32.011 228.028,32.086 228.085,32.400 227.600 C 32.901 226.824,32.901 226.400,32.400 226.400 C 32.180 226.400,32.003 226.805,32.006 227.300 M385.228 227.633 C 385.244 228.385,385.412 229.360,385.603 229.800 C 385.826 230.315,385.867 229.887,385.718 228.600 C 385.444 226.222,385.189 225.719,385.228 227.633 M14.454 227.800 C 14.419 228.240,14.289 229.050,14.167 229.600 C 13.975 230.463,14.007 230.503,14.398 229.890 C 14.647 229.499,14.777 228.689,14.686 228.090 C 14.578 227.379,14.497 227.279,14.454 227.800 M14.059 231.800 C 14.020 232.460,13.896 233.450,13.783 234.000 L 13.577 235.000 14.008 234.014 C 14.244 233.472,14.368 232.482,14.283 231.814 L 14.128 230.600 14.059 231.800 M31.600 231.624 C 31.600 232.077,31.780 232.336,32.000 232.200 C 32.220 232.064,32.400 231.693,32.400 231.376 C 32.400 231.059,32.220 230.800,32.000 230.800 C 31.780 230.800,31.600 231.171,31.600 231.624 M385.701 232.200 C 385.705 233.080,385.787 233.393,385.883 232.895 C 385.979 232.398,385.975 231.678,385.875 231.295 C 385.775 230.913,385.696 231.320,385.701 232.200 M31.492 235.442 C 31.331 235.602,31.200 236.009,31.200 236.347 C 31.200 236.797,31.318 236.842,31.645 236.515 C 31.890 236.270,32.021 235.863,31.937 235.610 C 31.852 235.357,31.652 235.281,31.492 235.442 M13.654 236.400 C 13.619 236.950,13.496 237.850,13.383 238.400 L 13.177 239.400 13.607 238.415 C 13.843 237.874,13.965 236.974,13.878 236.415 L 13.720 235.400 13.654 236.400 M386.093 236.800 C 386.093 237.570,386.175 237.885,386.276 237.500 C 386.376 237.115,386.376 236.485,386.276 236.100 C 386.175 235.715,386.093 236.030,386.093 236.800 M368.400 238.200 C 368.400 238.530,368.580 238.800,368.800 238.800 C 369.020 238.800,369.200 238.530,369.200 238.200 C 369.200 237.870,369.020 237.600,368.800 237.600 C 368.580 237.600,368.400 237.870,368.400 238.200 M13.301 241.000 C 13.305 241.880,13.387 242.193,13.483 241.695 C 13.579 241.198,13.575 240.478,13.475 240.095 C 13.375 239.713,13.296 240.120,13.301 241.000 M31.092 239.842 C 30.931 240.002,30.800 240.409,30.800 240.747 C 30.800 241.197,30.918 241.242,31.245 240.915 C 31.490 240.670,31.621 240.263,31.537 240.010 C 31.452 239.757,31.252 239.681,31.092 239.842 M386.493 240.800 C 386.493 241.570,386.575 241.885,386.676 241.500 C 386.776 241.115,386.776 240.485,386.676 240.100 C 386.575 239.715,386.493 240.030,386.493 240.800 M368.800 242.600 C 368.800 242.930,368.980 243.200,369.200 243.200 C 369.420 243.200,369.600 242.930,369.600 242.600 C 369.600 242.270,369.420 242.000,369.200 242.000 C 368.980 242.000,368.800 242.270,368.800 242.600 M369.200 247.000 C 369.200 247.330,369.380 247.600,369.600 247.600 C 369.820 247.600,370.000 247.330,370.000 247.000 C 370.000 246.670,369.820 246.400,369.600 246.400 C 369.380 246.400,369.200 246.670,369.200 247.000 M369.600 251.624 C 369.600 252.077,369.780 252.336,370.000 252.200 C 370.220 252.064,370.400 251.693,370.400 251.376 C 370.400 251.059,370.220 250.800,370.000 250.800 C 369.780 250.800,369.600 251.171,369.600 251.624 M9.600 274.376 C 9.600 274.829,9.780 275.200,10.000 275.200 C 10.220 275.200,10.400 274.941,10.400 274.624 C 10.400 274.307,10.220 273.936,10.000 273.800 C 9.780 273.664,9.600 273.923,9.600 274.376 M9.200 279.000 C 9.200 279.330,9.380 279.600,9.600 279.600 C 9.820 279.600,10.000 279.330,10.000 279.000 C 10.000 278.670,9.820 278.400,9.600 278.400 C 9.380 278.400,9.200 278.670,9.200 279.000 M390.400 283.400 C 390.400 283.730,390.580 284.000,390.800 284.000 C 391.020 284.000,391.200 283.730,391.200 283.400 C 391.200 283.070,391.020 282.800,390.800 282.800 C 390.580 282.800,390.400 283.070,390.400 283.400 M373.293 284.800 C 373.293 285.570,373.375 285.885,373.476 285.500 C 373.576 285.115,373.576 284.485,373.476 284.100 C 373.375 283.715,373.293 284.030,373.293 284.800 M373.468 288.200 C 373.771 290.177,374.002 290.514,373.994 288.967 C 373.991 288.325,373.816 287.530,373.605 287.200 C 373.345 286.791,373.301 287.110,373.468 288.200 M8.400 287.800 C 8.400 288.130,8.580 288.400,8.800 288.400 C 9.020 288.400,9.200 288.130,9.200 287.800 C 9.200 287.470,9.020 287.200,8.800 287.200 C 8.580 287.200,8.400 287.470,8.400 287.800 M390.800 287.800 C 390.800 288.130,390.980 288.400,391.200 288.400 C 391.420 288.400,391.600 288.130,391.600 287.800 C 391.600 287.470,391.420 287.200,391.200 287.200 C 390.980 287.200,390.800 287.470,390.800 287.800 M26.093 291.600 C 26.093 292.370,26.175 292.685,26.276 292.300 C 26.376 291.915,26.376 291.285,26.276 290.900 C 26.175 290.515,26.093 290.830,26.093 291.600 M373.873 292.800 C 374.004 293.790,374.176 294.675,374.256 294.767 C 374.557 295.114,374.328 292.564,373.990 291.800 C 373.753 291.266,373.714 291.598,373.873 292.800 M391.200 291.976 C 391.200 292.429,391.380 292.800,391.600 292.800 C 391.820 292.800,392.000 292.541,392.000 292.224 C 392.000 291.907,391.820 291.536,391.600 291.400 C 391.380 291.264,391.200 291.523,391.200 291.976 M374.046 296.000 C 374.065 296.330,374.224 297.050,374.400 297.600 L 374.720 298.600 374.754 297.600 C 374.773 297.050,374.613 296.330,374.400 296.000 C 374.055 295.467,374.016 295.467,374.046 296.000 M391.606 296.300 C 391.603 296.795,391.780 297.200,392.000 297.200 C 392.501 297.200,392.501 296.776,392.000 296.000 C 391.686 295.515,391.611 295.572,391.606 296.300 M25.456 298.484 C 25.321 298.988,25.230 299.940,25.253 300.600 C 25.281 301.428,25.397 301.184,25.626 299.813 C 25.976 297.723,25.874 296.926,25.456 298.484 M374.638 301.400 C 374.970 303.384,375.202 303.704,375.194 302.167 C 375.191 301.525,375.004 300.730,374.779 300.400 C 374.486 299.970,374.446 300.254,374.638 301.400 M392.006 300.700 C 392.003 301.195,392.180 301.600,392.400 301.600 C 392.901 301.600,392.901 301.176,392.400 300.400 C 392.086 299.915,392.011 299.972,392.006 300.700 M25.049 303.015 C 24.912 303.373,24.818 304.056,24.841 304.533 C 24.867 305.081,25.003 304.886,25.210 304.003 C 25.560 302.516,25.465 301.933,25.049 303.015 M374.846 304.800 C 374.865 305.130,375.024 305.850,375.200 306.400 L 375.520 307.400 375.554 306.400 C 375.573 305.850,375.413 305.130,375.200 304.800 C 374.855 304.267,374.816 304.267,374.846 304.800 M392.406 305.100 C 392.403 305.595,392.580 306.000,392.800 306.000 C 393.301 306.000,393.301 305.576,392.800 304.800 C 392.486 304.315,392.411 304.372,392.406 305.100 M7.092 305.042 C 6.931 305.202,6.800 305.609,6.800 305.947 C 6.800 306.397,6.918 306.442,7.245 306.115 C 7.490 305.870,7.621 305.463,7.537 305.210 C 7.452 304.957,7.252 304.881,7.092 305.042 M24.649 307.415 C 24.512 307.773,24.418 308.456,24.441 308.933 C 24.467 309.481,24.603 309.286,24.810 308.403 C 25.160 306.916,25.065 306.333,24.649 307.415 M392.806 309.476 C 392.803 309.958,392.980 310.464,393.200 310.600 C 393.709 310.915,393.709 309.988,393.200 309.200 C 392.885 308.712,392.811 308.764,392.806 309.476 M6.692 309.442 C 6.531 309.602,6.400 310.009,6.400 310.347 C 6.400 310.797,6.518 310.842,6.845 310.515 C 7.090 310.270,7.221 309.863,7.137 309.610 C 7.052 309.357,6.852 309.281,6.692 309.442 M375.228 309.476 C 375.318 310.515,375.944 311.396,375.972 310.524 C 375.987 310.042,375.820 309.536,375.600 309.400 C 375.380 309.264,375.213 309.298,375.228 309.476 M24.249 311.815 C 24.112 312.173,24.015 312.766,24.034 313.133 C 24.053 313.500,24.227 313.269,24.421 312.620 C 24.798 311.358,24.665 310.733,24.249 311.815 M393.228 313.676 C 393.213 314.268,393.380 314.864,393.600 315.000 C 394.078 315.295,394.078 314.511,393.600 313.400 C 393.293 312.686,393.253 312.715,393.228 313.676 M6.446 313.467 C 6.421 313.724,6.284 314.264,6.141 314.667 C 5.940 315.236,5.994 315.297,6.379 314.942 C 6.652 314.691,6.789 314.151,6.684 313.742 C 6.579 313.334,6.472 313.210,6.446 313.467 M375.628 313.876 C 375.718 314.915,376.344 315.796,376.372 314.924 C 376.387 314.442,376.220 313.936,376.000 313.800 C 375.780 313.664,375.613 313.698,375.628 313.876 M23.873 316.153 C 23.723 316.545,23.611 317.166,23.625 317.533 C 23.642 317.975,23.781 317.874,24.037 317.234 C 24.249 316.703,24.361 316.082,24.285 315.854 C 24.209 315.627,24.024 315.761,23.873 316.153 M393.634 317.800 C 393.622 318.240,393.787 318.870,394.000 319.200 C 394.514 319.995,394.514 318.996,394.000 317.800 L 393.656 317.000 393.634 317.800 M6.046 317.867 C 6.021 318.124,5.884 318.664,5.741 319.067 C 5.540 319.636,5.594 319.697,5.979 319.342 C 6.252 319.091,6.389 318.551,6.284 318.142 C 6.179 317.734,6.072 317.610,6.046 317.867 M376.006 318.476 C 376.018 319.481,376.787 320.308,376.794 319.324 C 376.797 318.842,376.620 318.336,376.400 318.200 C 376.180 318.064,376.003 318.188,376.006 318.476 M23.492 320.242 C 23.331 320.402,23.211 320.998,23.225 321.567 L 23.251 322.600 23.637 321.634 C 24.053 320.594,23.967 319.767,23.492 320.242 M394.034 322.200 C 394.022 322.640,394.187 323.270,394.400 323.600 C 394.914 324.395,394.914 323.396,394.400 322.200 L 394.056 321.400 394.034 322.200 M5.429 323.029 C 5.281 323.615,5.251 324.184,5.361 324.294 C 5.471 324.404,5.681 324.015,5.829 323.429 C 5.976 322.842,6.006 322.273,5.896 322.163 C 5.786 322.053,5.576 322.442,5.429 323.029 M376.400 322.953 C 376.400 323.283,376.580 323.664,376.800 323.800 C 377.020 323.936,377.200 323.777,377.200 323.447 C 377.200 323.117,377.020 322.736,376.800 322.600 C 376.580 322.464,376.400 322.623,376.400 322.953 M23.092 324.642 C 22.931 324.802,22.805 325.308,22.812 325.767 C 22.823 326.536,22.856 326.545,23.240 325.885 C 23.688 325.116,23.573 324.160,23.092 324.642 M394.406 326.433 C 394.409 326.965,394.589 327.670,394.806 328.000 C 395.082 328.422,395.123 328.185,394.942 327.200 C 394.625 325.475,394.398 325.149,394.406 326.433 M5.249 326.400 C 5.216 326.730,5.089 327.450,4.967 328.000 C 4.775 328.864,4.807 328.903,5.199 328.288 C 5.448 327.897,5.575 327.177,5.481 326.688 C 5.386 326.200,5.282 326.070,5.249 326.400 M376.800 327.353 C 376.800 327.683,376.980 328.064,377.200 328.200 C 377.420 328.336,377.600 328.177,377.600 327.847 C 377.600 327.517,377.420 327.136,377.200 327.000 C 376.980 326.864,376.800 327.023,376.800 327.353 M22.406 330.100 C 22.411 330.828,22.486 330.885,22.800 330.400 C 23.301 329.624,23.301 329.200,22.800 329.200 C 22.580 329.200,22.403 329.605,22.406 330.100 M394.806 330.833 C 394.809 331.365,394.989 332.070,395.206 332.400 C 395.482 332.822,395.523 332.585,395.342 331.600 C 395.025 329.875,394.798 329.549,394.806 330.833 M4.849 330.800 C 4.816 331.130,4.689 331.850,4.567 332.400 C 4.375 333.264,4.407 333.303,4.799 332.688 C 5.048 332.297,5.175 331.577,5.081 331.088 C 4.986 330.600,4.882 330.470,4.849 330.800 M377.200 331.753 C 377.200 332.083,377.380 332.464,377.600 332.600 C 377.820 332.736,378.000 332.577,378.000 332.247 C 378.000 331.917,377.820 331.536,377.600 331.400 C 377.380 331.264,377.200 331.423,377.200 331.753 M22.006 334.500 C 22.011 335.228,22.086 335.285,22.400 334.800 C 22.901 334.024,22.901 333.600,22.400 333.600 C 22.180 333.600,22.003 334.005,22.006 334.500 M395.206 335.033 C 395.209 335.675,395.384 336.470,395.595 336.800 C 395.855 337.209,395.899 336.890,395.732 335.800 C 395.429 333.823,395.198 333.486,395.206 335.033 M4.449 335.200 C 4.416 335.530,4.289 336.250,4.167 336.800 C 3.975 337.664,4.007 337.703,4.399 337.088 C 4.648 336.697,4.775 335.977,4.681 335.488 C 4.586 335.000,4.482 334.870,4.449 335.200 M21.606 338.900 C 21.611 339.628,21.686 339.685,22.000 339.200 C 22.501 338.424,22.501 338.000,22.000 338.000 C 21.780 338.000,21.603 338.405,21.606 338.900 M395.693 339.200 C 395.693 339.970,395.775 340.285,395.876 339.900 C 395.976 339.515,395.976 338.885,395.876 338.500 C 395.775 338.115,395.693 338.430,395.693 339.200 M4.064 339.467 C 4.029 340.164,3.896 341.064,3.770 341.467 C 3.553 342.159,3.565 342.160,3.994 341.491 C 4.245 341.102,4.377 340.202,4.289 339.491 L 4.128 338.200 4.064 339.467 M21.492 342.642 C 21.331 342.802,21.200 343.209,21.200 343.547 C 21.200 343.997,21.318 344.042,21.645 343.715 C 21.890 343.470,22.021 343.063,21.937 342.810 C 21.852 342.557,21.652 342.481,21.492 342.642 M396.093 343.600 C 396.093 344.370,396.175 344.685,396.276 344.300 C 396.376 343.915,396.376 343.285,396.276 342.900 C 396.175 342.515,396.093 342.830,396.093 343.600 M3.660 344.067 C 3.627 344.654,3.496 345.464,3.370 345.867 C 3.152 346.560,3.165 346.561,3.595 345.890 C 3.846 345.499,3.977 344.689,3.886 344.090 L 3.720 343.000 3.660 344.067 M378.400 345.400 C 378.400 345.730,378.580 346.000,378.800 346.000 C 379.020 346.000,379.200 345.730,379.200 345.400 C 379.200 345.070,379.020 344.800,378.800 344.800 C 378.580 344.800,378.400 345.070,378.400 345.400 M21.092 347.042 C 20.931 347.202,20.800 347.609,20.800 347.947 C 20.800 348.397,20.918 348.442,21.245 348.115 C 21.490 347.870,21.621 347.463,21.537 347.210 C 21.452 346.957,21.252 346.881,21.092 347.042 M3.293 348.400 C 3.293 349.170,3.375 349.485,3.476 349.100 C 3.576 348.715,3.576 348.085,3.476 347.700 C 3.375 347.315,3.293 347.630,3.293 348.400 M378.800 349.800 C 378.800 350.130,378.980 350.400,379.200 350.400 C 379.420 350.400,379.600 350.130,379.600 349.800 C 379.600 349.470,379.420 349.200,379.200 349.200 C 378.980 349.200,378.800 349.470,378.800 349.800 M379.200 354.200 C 379.200 354.530,379.380 354.800,379.600 354.800 C 379.820 354.800,380.000 354.530,380.000 354.200 C 380.000 353.870,379.820 353.600,379.600 353.600 C 379.380 353.600,379.200 353.870,379.200 354.200 M379.600 358.600 C 379.600 359.196,379.772 359.541,380.000 359.400 C 380.220 359.264,380.400 358.904,380.400 358.600 C 380.400 358.296,380.220 357.936,380.000 357.800 C 379.772 357.659,379.600 358.004,379.600 358.600 M0.114 383.000 C 0.117 384.100,0.195 384.503,0.287 383.895 C 0.379 383.286,0.377 382.386,0.282 381.895 C 0.187 381.403,0.111 381.900,0.114 383.000 M22.400 389.982 C 22.730 390.205,23.345 390.391,23.767 390.394 C 24.790 390.402,24.471 390.173,23.000 389.844 C 22.124 389.648,21.962 389.685,22.400 389.982 " stroke="none" fill="#5a5a5a" fill-rule="evenodd"></path><path id="path3" d="M127.779 143.200 C 127.779 150.350,127.833 153.275,127.899 149.700 C 127.966 146.125,127.966 140.275,127.899 136.700 C 127.833 133.125,127.779 136.050,127.779 143.200 " stroke="none" fill="#7c7c7c" fill-rule="evenodd"></path><path id="path4" d="M199.100 16.682 C 199.595 16.778,200.405 16.778,200.900 16.682 C 201.395 16.587,200.990 16.509,200.000 16.509 C 199.010 16.509,198.605 16.587,199.100 16.682 M138.562 24.058 C 137.805 24.910,137.806 24.913,138.678 24.456 C 139.650 23.946,140.249 23.200,139.686 23.200 C 139.487 23.200,138.981 23.586,138.562 24.058 M134.911 27.700 C 134.129 28.711,133.863 29.332,134.336 29.040 C 134.810 28.747,135.757 27.200,135.463 27.200 C 135.372 27.200,135.124 27.425,134.911 27.700 M289.067 130.267 C 288.368 130.965,288.781 155.887,289.500 156.432 C 290.096 156.882,290.125 156.878,289.700 156.401 C 289.322 155.977,289.200 152.731,289.200 143.122 L 289.200 130.405 321.100 130.300 L 353.000 130.195 321.167 130.098 C 303.658 130.044,289.213 130.120,289.067 130.267 M112.300 390.300 C 160.535 390.356,239.465 390.356,287.700 390.300 C 335.935 390.244,296.470 390.198,200.000 390.198 C 103.530 390.198,64.065 390.244,112.300 390.300 " stroke="none" fill="#848484" fill-rule="evenodd"></path></g></svg>